<svg width="16.285156" height="19.998535" viewBox="0 0 16.2852 19.9985" fill="none" xmlns="http://www.w3.org/2000/svg" xmlns:xlink="http://www.w3.org/1999/xlink">
	<desc>
			Created with Pixso.
	</desc>
	<defs/>
	<path id="Vector" d="M13.6 10.62C13.57 8.09 15.66 6.87 15.75 6.81C14.58 5.09 12.75 4.86 12.1 4.83C10.54 4.67 9.06 5.75 8.27 5.75C7.48 5.75 6.26 4.85 4.97 4.88C3.27 4.9 1.71 5.87 0.83 7.39C-0.93 10.45 0.38 14.98 2.1 17.46C2.94 18.68 3.94 20.04 5.26 19.99C6.52 19.94 7 19.17 8.53 19.17C10.06 19.17 10.5 19.99 11.83 19.97C13.2 19.94 14.06 18.73 14.89 17.51C15.86 16.1 16.26 14.74 16.28 14.67C16.25 14.65 13.62 13.65 13.6 10.62L13.6 10.62ZM11.08 3.19C11.78 2.34 12.25 1.17 12.12 0C11.11 0.04 9.89 0.66 9.17 1.51C8.53 2.26 7.96 3.45 8.11 4.6C9.23 4.69 10.38 4.03 11.08 3.19Z" fill="#21272A" fill-opacity="1.000000" fill-rule="nonzero"/>
</svg>
