<svg width="816.000000" height="396.000000" viewBox="0 0 816 396" fill="none" xmlns="http://www.w3.org/2000/svg" xmlns:xlink="http://www.w3.org/1999/xlink">
	<desc>
			Created with Pixso.
	</desc>
	<defs>
		<clipPath id="clip21_1601">
			<rect id="icon / jam-icons / filled / circle-f" rx="-0.500000" width="15.000000" height="15.000000" transform="translate(16.500000 55.500000)" fill="white" fill-opacity="0"/>
		</clipPath>
		<clipPath id="clip21_1604">
			<rect id="icon / jam-icons / filled / circle-f" rx="-0.500000" width="15.000000" height="15.000000" transform="translate(155.500000 55.500000)" fill="white" fill-opacity="0"/>
		</clipPath>
	</defs>
	<rect id="Dashboard Section" rx="-0.500000" width="534.191650" height="395.000000" transform="translate(0.500000 0.500000)" fill="#FFFFFF" fill-opacity="1.000000"/>
	<path id="Description Top" d="M45.58 23.56Q44.68 23.01 43.46 23.01Q42.7 23.01 42.04 23.26Q41.25 23.55 40.6 24.19Q40.82 23 41.47 22.34Q42.12 21.68 43.25 21.45Q45.15 21.07 45.89 20.38Q45.95 20.32 46 20.27Q46.63 19.58 46.63 18.3L44.58 18.3Q44.58 18.55 44.47 18.73Q44.39 18.87 44.25 18.97Q43.93 19.22 42.8 19.46Q41.59 19.73 40.72 20.43Q40.05 20.96 39.59 21.75Q38.52 23.57 38.5 26.77L38.5 27.2Q38.5 29.32 39.53 30.62Q39.62 30.73 39.72 30.84Q40.1 31.25 40.56 31.54Q41.58 32.18 43 32.18Q44.56 32.18 45.64 31.45Q45.97 31.23 46.26 30.94Q46.52 30.67 46.72 30.37Q47.47 29.26 47.47 27.64L47.47 27.52Q47.47 25.58 46.52 24.39Q46.45 24.31 46.38 24.23Q46.02 23.82 45.58 23.56ZM24.92 32L27.56 32L27.56 19.2L17.16 19.2L17.16 32L19.79 32L19.79 21.33L24.92 21.33L24.92 32ZM84.83 31.14Q84.91 31.65 85.09 32L87.65 32L87.65 31.85Q87.28 31.15 87.27 29.8L87.27 25.68Q87.27 24.52 86.73 23.73Q86.53 23.44 86.24 23.19Q86.22 23.17 86.19 23.15Q85.17 22.31 83.45 22.31Q82.29 22.31 81.36 22.71Q80.43 23.11 79.92 23.81Q79.6 24.26 79.48 24.75Q79.41 25.04 79.41 25.34L81.95 25.34Q81.95 24.99 82.11 24.73Q82.19 24.6 82.31 24.5Q82.68 24.19 83.32 24.19Q83.99 24.19 84.33 24.53Q84.36 24.56 84.39 24.59Q84.41 24.61 84.42 24.63Q84.73 25.02 84.73 25.64L84.73 26.19L83.56 26.19Q81.44 26.19 80.32 27Q79.88 27.32 79.61 27.75Q79.2 28.41 79.2 29.32Q79.2 29.95 79.43 30.46Q79.66 30.96 80.12 31.36Q80.34 31.56 80.59 31.71Q81.37 32.17 82.43 32.17Q83.32 32.17 84 31.8Q84.46 31.55 84.83 31.14ZM35.01 22.49L33.26 28.4L31.49 22.49L28.76 22.49L32.09 32.02L31.79 32.8Q31.59 33.31 31.23 33.53Q30.87 33.75 30.15 33.75L29.77 33.74L29.77 35.67Q30.34 35.84 30.89 35.84Q31.8 35.84 32.47 35.44Q33.25 34.98 33.71 33.97L33.92 33.47L37.74 22.49L35.01 22.49ZM57.26 32L57.26 22.49L50.1 22.49L49.92 26.52Q49.84 28.34 49.53 29.09Q49.32 29.59 48.95 29.78Q48.76 29.89 48.52 29.9L48.21 29.93L48.23 32L49.09 32Q50.13 31.98 50.82 31.48Q51.15 31.24 51.4 30.9Q52.17 29.82 52.32 27.48L52.48 24.54L54.72 24.54L54.72 32L57.26 32ZM67.49 22.49L64.95 22.49L61.77 28.35L61.77 22.49L59.22 22.49L59.22 32L61.77 32L64.95 26.12L64.95 32L67.49 32L67.49 22.49ZM72.14 28.49L73.16 28.49L75.23 32L78.62 32L75.22 27.01L78.33 22.49L75.12 22.49L73.04 26.06L72.14 26.06L72.14 22.49L69.6 22.49L69.6 32L72.14 32L72.14 28.49ZM91.77 22.49L89.23 22.49L89.23 32L96.38 32L96.38 34.82L98.74 34.82L98.92 29.96L97.5 29.96L97.5 22.49L94.95 22.49L94.95 29.95L91.77 29.95L91.77 22.49ZM108.47 22.49L105.93 22.49L102.74 28.35L102.74 22.49L100.19 22.49L100.19 32L102.74 32L105.93 26.12L105.93 32L108.47 32L108.47 22.49ZM118.68 22.49L116.14 22.49L112.96 28.35L112.96 22.49L110.41 22.49L110.41 32L112.96 32L116.14 26.12L116.14 32L118.68 32L118.68 22.49ZM41.93 25.35Q42.36 25.07 42.98 25.07Q43.62 25.07 44.07 25.37Q44.26 25.5 44.41 25.68Q44.93 26.29 44.93 27.46L44.93 27.67Q44.92 28.88 44.42 29.51Q44.26 29.7 44.06 29.84Q43.63 30.13 43 30.13Q42.33 30.13 41.88 29.82Q41.69 29.69 41.54 29.49Q41.04 28.86 41.04 27.64Q41.04 26.28 41.56 25.68Q41.72 25.48 41.93 25.35ZM83.73 30.11Q83.38 30.23 82.99 30.23Q82.45 30.23 82.13 29.97Q82.1 29.95 82.07 29.92Q81.93 29.79 81.85 29.62Q81.74 29.41 81.74 29.14L81.75 28.99Q81.78 28.58 81.99 28.3Q82.46 27.67 83.78 27.67L84.73 27.67L84.73 29.31Q84.68 29.38 84.64 29.45Q84.41 29.77 84.02 29.98Q83.88 30.05 83.73 30.11Z" fill="#21272A" fill-opacity="1.000000" fill-rule="evenodd"/>
	<rect id="icon / jam-icons / filled / circle-f" rx="-0.500000" width="15.000000" height="15.000000" transform="translate(16.500000 55.500000)" fill="#FFFFFF" fill-opacity="0"/>
	<g clip-path="url(#clip21_1601)">
		<path id="Vector" d="M28 77.06C22.47 77.06 18 72.58 18 67.06C18 61.54 22.47 57.06 28 57.06C33.52 57.06 38 61.54 38 67.06C38 72.58 33.52 77.06 28 77.06Z" fill="#21272A" fill-opacity="1.000000" fill-rule="nonzero"/>
	</g>
	<path id="Text" d="M106.81 58.51Q107.07 58.06 107.07 57.46L105.9 57.46Q105.9 57.95 105.66 58.25Q105.63 58.29 105.59 58.32Q105.55 58.36 105.51 58.4Q105.21 58.63 104.74 58.63Q104.21 58.63 103.92 58.37Q103.9 58.34 103.87 58.32Q103.84 58.29 103.81 58.25Q103.57 57.96 103.57 57.46L102.39 57.46Q102.39 58.04 102.64 58.48Q102.79 58.76 103.04 58.98Q103.14 59.07 103.25 59.14Q103.85 59.56 104.74 59.56Q105.63 59.56 106.24 59.14Q106.34 59.07 106.43 58.98Q106.66 58.77 106.81 58.51ZM44.5 69L46 69L46 57.62L37.39 57.62L37.39 69L38.89 69L38.89 58.85L44.5 58.85L44.5 69ZM54.76 67.97Q55.64 66.79 55.64 64.86L55.64 64.73Q55.64 62.68 54.76 61.53Q54.37 61.03 53.86 60.75Q53.2 60.39 52.35 60.39Q51.33 60.39 50.6 60.84Q50.21 61.09 49.89 61.48L49.82 60.54L48.5 60.54L48.5 72.25L49.95 72.25L49.95 68.17Q50.19 68.44 50.47 68.63Q51.25 69.15 52.37 69.15Q53.17 69.15 53.79 68.82Q54.34 68.53 54.76 67.97ZM57.58 62.46Q57.1 63.45 57.1 64.69L57.1 64.79Q57.1 66.52 57.92 67.65Q58.03 67.81 58.16 67.96Q58.58 68.43 59.11 68.71Q59.91 69.15 60.95 69.15Q61.87 69.15 62.63 68.79Q62.8 68.71 62.97 68.6Q63.27 68.42 63.52 68.18Q64.01 67.72 64.32 67.08Q64.79 66.1 64.79 64.86L64.79 64.76Q64.79 63 63.95 61.85Q63.84 61.71 63.73 61.58Q63.31 61.12 62.8 60.83Q61.99 60.39 60.93 60.39Q60.06 60.39 59.33 60.72Q59.13 60.81 58.94 60.92Q58.72 61.06 58.53 61.23Q57.95 61.72 57.58 62.46ZM121.07 62.46Q120.58 63.45 120.58 64.69L120.58 64.79Q120.58 66.52 121.4 67.65Q121.52 67.81 121.65 67.96Q122.07 68.43 122.59 68.71Q123.39 69.15 124.43 69.15Q125.36 69.15 126.11 68.79Q126.29 68.71 126.45 68.6Q126.75 68.42 127 68.18Q127.49 67.72 127.8 67.08Q128.28 66.1 128.28 64.86L128.28 64.76Q128.28 63 127.43 61.85Q127.33 61.71 127.21 61.58Q126.8 61.12 126.28 60.83Q125.47 60.39 124.42 60.39Q123.54 60.39 122.82 60.72Q122.62 60.81 122.43 60.92Q122.21 61.06 122.01 61.23Q121.43 61.72 121.07 62.46ZM68.18 67.82L68.18 60.54L66.73 60.54L66.73 69L77.26 69L77.26 60.54L75.81 60.54L75.81 67.82L72.72 67.82L72.72 60.54L71.28 60.54L71.28 67.82L68.18 67.82ZM86.47 69L86.47 60.54L80.76 60.54L80.6 64.16Q80.52 66.14 80.21 66.88Q80.03 67.33 79.69 67.53Q79.48 67.66 79.21 67.69L78.79 67.72L78.79 69L79.37 69Q80.22 68.97 80.76 68.55Q81.04 68.34 81.24 68.02Q81.83 67.08 81.97 64.9L82.14 61.74L85.02 61.74L85.02 69L86.47 69ZM92.57 63.46L90.37 63.46L90.37 60.54L88.92 60.54L88.92 69L92.5 69Q93.84 69 94.67 68.35Q94.75 68.29 94.82 68.23Q95.12 67.95 95.32 67.61Q95.67 67.01 95.67 66.2Q95.67 65.35 95.29 64.74Q95.11 64.44 94.84 64.21Q94.82 64.19 94.79 64.16Q93.96 63.47 92.57 63.46ZM97.24 69L98.69 69L98.69 60.54L97.24 60.54L97.24 69ZM108.13 60.54L106.68 60.54L102.78 66.71L102.78 60.54L101.34 60.54L101.34 69L102.78 69L106.68 62.83L106.68 69L108.13 69L108.13 60.54ZM115.97 61.74L119.87 61.74L119.87 60.54L114.52 60.54L114.52 69L115.97 69L115.97 61.74ZM129.96 67.2L129.46 67.82L128.8 67.82L128.79 71.48L130.24 71.48L130.24 69L136.14 69L136.14 71.48L137.58 71.48L137.58 67.82L136.5 67.82L136.5 60.54L131.05 60.54L130.92 63.92Q130.8 66.1 129.96 67.2ZM59.2 67.12Q58.55 66.27 58.55 64.86Q58.55 63.28 59.21 62.42Q59.54 61.99 59.98 61.78Q60.4 61.57 60.93 61.57Q61.49 61.57 61.93 61.8Q62.36 62.01 62.69 62.44Q63.35 63.3 63.35 64.69Q63.35 66.25 62.7 67.11Q62.39 67.52 61.98 67.73Q61.53 67.97 60.95 67.97Q60.37 67.97 59.92 67.74Q59.51 67.52 59.2 67.12ZM122.69 67.12Q122.03 66.27 122.03 64.86Q122.03 63.28 122.69 62.42Q123.02 61.99 123.46 61.78Q123.89 61.57 124.42 61.57Q124.97 61.57 125.42 61.8Q125.85 62.01 126.17 62.44Q126.83 63.3 126.83 64.69Q126.83 66.25 126.18 67.11Q125.88 67.52 125.46 67.73Q125.01 67.97 124.43 67.97Q123.86 67.97 123.41 67.74Q123 67.52 122.69 67.12ZM53.59 62.44Q54.2 63.27 54.2 64.7Q54.2 66.32 53.58 67.15Q53.29 67.55 52.89 67.75Q52.47 67.97 51.93 67.97Q51.25 67.97 50.75 67.67Q50.27 67.38 49.95 66.82L49.95 62.78Q50.29 62.17 50.8 61.88Q51.28 61.61 51.92 61.61Q52.49 61.61 52.93 61.85Q53.31 62.06 53.59 62.44ZM135.05 67.82L131.17 67.82Q132.23 66.42 132.36 63.89L132.45 61.88L135.05 61.88L135.05 67.82ZM90.37 67.82L90.37 64.64L92.57 64.64Q93.24 64.65 93.66 64.98Q93.73 65.04 93.79 65.1Q93.92 65.23 94 65.39Q94.22 65.76 94.22 66.25Q94.22 66.81 93.96 67.18Q93.88 67.3 93.78 67.4Q93.76 67.41 93.74 67.43Q93.3 67.82 92.52 67.82L90.37 67.82Z" fill="#697077" fill-opacity="1.000000" fill-rule="evenodd"/>
	<rect id="icon / jam-icons / filled / circle-f" rx="-0.500000" width="15.000000" height="15.000000" transform="translate(155.500000 55.500000)" fill="#FFFFFF" fill-opacity="0"/>
	<g clip-path="url(#clip21_1604)">
		<path id="Vector" d="M167 77.06C161.47 77.06 157 72.58 157 67.06C157 61.54 161.47 57.06 167 57.06C172.52 57.06 177 61.54 177 67.06C177 72.58 172.52 77.06 167 77.06Z" fill="#21272A" fill-opacity="1.000000" fill-rule="nonzero"/>
	</g>
	<path id="Text" d="M237.62 58.51Q237.88 58.06 237.88 57.46L236.71 57.46Q236.71 57.95 236.47 58.25Q236.44 58.29 236.4 58.32Q236.36 58.36 236.31 58.4Q236.02 58.63 235.54 58.63Q235.02 58.63 234.73 58.37Q234.7 58.34 234.68 58.32Q234.65 58.29 234.62 58.25Q234.38 57.96 234.38 57.46L233.2 57.46Q233.2 58.04 233.44 58.48Q233.6 58.76 233.85 58.98Q233.95 59.07 234.06 59.14Q234.66 59.56 235.54 59.56Q236.44 59.56 237.04 59.14Q237.14 59.07 237.23 58.98Q237.47 58.77 237.62 58.51ZM180.52 58.85L184.18 58.85L184.18 57.62L175.38 57.62L175.38 58.85L179.03 58.85L179.03 69L180.52 69L180.52 58.85ZM186.4 68.67Q187.25 69.15 188.37 69.15Q189.63 69.15 190.52 68.57Q191.13 68.18 191.56 67.52L190.68 66.83Q190.32 67.28 189.87 67.58Q189.81 67.62 189.75 67.66Q189.21 67.97 188.45 67.97Q187.85 67.97 187.37 67.73Q186.98 67.54 186.67 67.2Q186.57 67.09 186.48 66.97Q185.97 66.25 185.94 65.18L191.67 65.18L191.67 64.58Q191.67 62.56 190.75 61.47Q190.48 61.15 190.15 60.92Q189.35 60.39 188.19 60.39Q187.75 60.39 187.34 60.49Q186.81 60.63 186.32 60.94Q186.08 61.1 185.88 61.28Q185.33 61.77 184.98 62.49Q184.5 63.48 184.5 64.74L184.5 65Q184.5 66.57 185.23 67.61Q185.39 67.83 185.57 68.02Q185.95 68.41 186.4 68.67ZM251.87 62.46Q251.39 63.45 251.39 64.69L251.39 64.79Q251.39 66.52 252.21 67.65Q252.32 67.81 252.45 67.96Q252.87 68.43 253.4 68.71Q254.2 69.15 255.24 69.15Q256.16 69.15 256.92 68.79Q257.09 68.71 257.26 68.6Q257.56 68.42 257.81 68.18Q258.3 67.72 258.61 67.08Q259.08 66.1 259.08 64.86L259.08 64.76Q259.08 63 258.24 61.85Q258.13 61.71 258.01 61.58Q257.6 61.12 257.09 60.83Q256.28 60.39 255.22 60.39Q254.35 60.39 253.62 60.72Q253.42 60.81 253.23 60.92Q253.01 61.06 252.82 61.23Q252.24 61.72 251.87 62.46ZM194.92 65.39L195.97 65.39L198.9 69L200.74 69L197.11 64.6L200.46 60.54L198.71 60.54L195.86 64.12L194.92 64.12L194.92 60.54L193.46 60.54L193.46 69L194.92 69L194.92 65.39ZM206.71 60.54L204.75 66.88L202.64 60.54L201.06 60.54L204.07 68.9L203.75 69.76Q203.49 70.55 203.08 70.85Q202.67 71.14 201.93 71.14L201.54 71.11L201.54 72.28L202.08 72.39L202.35 72.41Q202.87 72.41 203.3 72.22Q204.31 71.77 204.86 70.3L208.26 60.54L206.71 60.54ZM211.04 67.82L211.04 60.54L209.59 60.54L209.59 69L219.87 69L219.87 71.5L221.17 71.5L221.31 67.82L220.12 67.82L220.12 60.54L218.67 60.54L218.67 67.82L215.58 67.82L215.58 60.54L214.14 60.54L214.14 67.82L211.04 67.82ZM229.7 60.54L228.25 60.54L224.35 66.71L224.35 60.54L222.91 60.54L222.91 69L224.35 69L228.25 62.83L228.25 69L229.7 69L229.7 60.54ZM238.93 60.54L237.49 60.54L233.59 66.71L233.59 60.54L232.14 60.54L232.14 69L233.59 69L237.49 62.83L237.49 69L238.93 69L238.93 60.54ZM246.78 61.74L250.68 61.74L250.68 60.54L245.32 60.54L245.32 69L246.78 69L246.78 61.74ZM260.76 67.2L260.26 67.82L259.6 67.82L259.6 71.48L261.04 71.48L261.04 69L266.94 69L266.94 71.48L268.39 71.48L268.39 67.82L267.3 67.82L267.3 60.54L261.85 60.54L261.72 63.92Q261.6 66.1 260.76 67.2ZM187.37 61.74Q187.75 61.57 188.19 61.57Q188.8 61.57 189.24 61.84Q189.45 61.98 189.63 62.18Q190.16 62.78 190.22 63.89L190.22 64L185.99 64Q186.13 62.85 186.72 62.21Q187.01 61.9 187.37 61.74ZM253.49 67.12Q252.84 66.27 252.84 64.86Q252.84 63.28 253.5 62.42Q253.83 61.99 254.27 61.78Q254.69 61.57 255.22 61.57Q255.78 61.57 256.22 61.8Q256.65 62.01 256.98 62.44Q257.64 63.3 257.64 64.69Q257.64 66.25 256.99 67.11Q256.68 67.52 256.27 67.73Q255.82 67.97 255.24 67.97Q254.66 67.97 254.21 67.74Q253.8 67.52 253.49 67.12ZM265.85 67.82L261.97 67.82Q263.03 66.42 263.17 63.89L263.25 61.88L265.85 61.88L265.85 67.82Z" fill="#697077" fill-opacity="1.000000" fill-rule="evenodd"/>
	<rect id="graph-label" rx="-0.500000" width="502.191650" height="14.000000" transform="translate(16.500000 90.500000)" fill="#FFFFFF" fill-opacity="0"/>
	<rect id="graph-label" rx="-0.500000" width="47.000000" height="14.000000" transform="translate(16.500000 90.500000)" fill="#FFFFFF" fill-opacity="0"/>
	<path id="Label" d="M48.28 97.63C48.28 100.48 47.17 102.12 45.25 102.12C43.32 102.12 42.21 100.48 42.21 97.63C42.21 94.8 43.33 93.15 45.25 93.15C47.16 93.15 48.28 94.8 48.28 97.63ZM55.78 97.63C55.78 100.48 54.67 102.12 52.75 102.12C50.82 102.12 49.71 100.48 49.71 97.63C49.71 94.8 50.83 93.15 52.75 93.15C54.66 93.15 55.78 94.8 55.78 97.63ZM63.28 97.63C63.28 100.48 62.17 102.12 60.25 102.12C58.32 102.12 57.21 100.48 57.21 97.63C57.21 94.8 58.33 93.15 60.25 93.15C62.16 93.15 63.28 94.8 63.28 97.63ZM38.84 93.27L39.89 93.27L39.89 102L38.84 102L38.84 94.37L38.78 94.37L36.65 95.79L36.65 94.72L38.84 93.27ZM43.23 97.63C43.23 99.9 43.98 101.18 45.25 101.18C46.51 101.18 47.26 99.9 47.26 97.63C47.26 95.37 46.51 94.07 45.25 94.07C43.98 94.07 43.23 95.37 43.23 97.63ZM50.73 97.63C50.73 99.9 51.48 101.18 52.75 101.18C54.01 101.18 54.76 99.9 54.76 97.63C54.76 95.37 54.01 94.07 52.75 94.07C51.48 94.07 50.73 95.37 50.73 97.63ZM58.23 97.63C58.23 99.9 58.98 101.18 60.25 101.18C61.51 101.18 62.26 99.9 62.26 97.63C62.26 95.37 61.51 94.07 60.25 94.07C58.98 94.07 58.23 95.37 58.23 97.63Z" fill="#697077" fill-opacity="1.000000" fill-rule="evenodd"/>
	<line id="line" x1="72.000000" y1="97.000000" x2="519.191406" y2="97.000000" stroke="#DDE1E6" stroke-opacity="1.000000" stroke-width="1.000000"/>
	<rect id="graph-label" rx="-0.500000" width="502.191650" height="14.000000" transform="translate(16.500000 115.699951)" fill="#FFFFFF" fill-opacity="0"/>
	<rect id="graph-label" rx="-0.500000" width="47.000000" height="14.000000" transform="translate(16.500000 115.699951)" fill="#FFFFFF" fill-opacity="0"/>
	<path id="Label" d="M42.28 121.26C42.28 119.66 43.42 118.33 45.19 118.35C46.62 118.37 48.23 119.27 48.23 122.47C48.23 125.58 47.02 127.32 45.06 127.32C43.59 127.32 42.55 126.38 42.35 125L43.39 125C43.57 125.8 44.14 126.38 45.06 126.38C46.4 126.38 47.24 125.15 47.24 123L47.17 123C46.69 123.72 45.93 124.16 45.02 124.16C43.52 124.16 42.28 122.95 42.28 121.26ZM55.78 122.83C55.78 125.68 54.67 127.32 52.75 127.32C50.82 127.32 49.71 125.68 49.71 122.83C49.71 120 50.83 118.35 52.75 118.35C54.66 118.35 55.78 120 55.78 122.83ZM63.28 122.83C63.28 125.68 62.17 127.32 60.25 127.32C58.32 127.32 57.21 125.68 57.21 122.83C57.21 120 58.33 118.35 60.25 118.35C62.16 118.35 63.28 120 63.28 122.83ZM50.73 122.83C50.73 125.1 51.48 126.38 52.75 126.38C54.01 126.38 54.76 125.1 54.76 122.83C54.76 120.57 54.01 119.27 52.75 119.27C51.48 119.27 50.73 120.57 50.73 122.83ZM58.23 122.83C58.23 125.1 58.98 126.38 60.25 126.38C61.51 126.38 62.26 125.1 62.26 122.83C62.26 120.57 61.51 119.27 60.25 119.27C58.98 119.27 58.23 120.57 58.23 122.83ZM47.09 121.25C47.09 120.22 46.28 119.29 45.19 119.29C44.12 119.29 43.3 120.17 43.3 121.26C43.3 122.36 44.09 123.22 45.16 123.22C46.23 123.22 47.09 122.29 47.09 121.25Z" fill="#697077" fill-opacity="1.000000" fill-rule="evenodd"/>
	<line id="line" x1="72.000000" y1="122.199951" x2="519.191406" y2="122.199951" stroke="#DDE1E6" stroke-opacity="1.000000" stroke-width="1.000000"/>
	<rect id="graph-label" rx="-0.500000" width="502.191650" height="14.000000" transform="translate(16.500000 140.899902)" fill="#FFFFFF" fill-opacity="0"/>
	<rect id="graph-label" rx="-0.500000" width="47.000000" height="14.000000" transform="translate(16.500000 140.899902)" fill="#FFFFFF" fill-opacity="0"/>
	<path id="Label" d="M48.26 150.08C48.25 151.5 47.04 152.52 45.3 152.52C43.54 152.52 42.32 151.5 42.33 150.08C42.32 148.97 43.06 148.04 44.02 147.86L44.02 147.81C43.18 147.6 42.65 146.8 42.65 145.87C42.65 144.54 43.76 143.55 45.3 143.55C46.81 143.55 47.93 144.54 47.94 145.87C47.93 146.8 47.39 147.6 46.57 147.81L46.57 147.86C47.52 148.04 48.25 148.97 48.26 150.08ZM55.78 148.03C55.78 150.88 54.67 152.52 52.75 152.52C50.82 152.52 49.71 150.88 49.71 148.03C49.71 145.2 50.83 143.55 52.75 143.55C54.66 143.55 55.78 145.2 55.78 148.03ZM63.28 148.03C63.28 150.88 62.17 152.52 60.25 152.52C58.32 152.52 57.21 150.88 57.21 148.03C57.21 145.2 58.33 143.55 60.25 143.55C62.16 143.55 63.28 145.2 63.28 148.03ZM43.68 145.94C43.67 146.84 44.34 147.44 45.3 147.44C46.24 147.44 46.91 146.84 46.91 145.94C46.91 145.05 46.26 144.47 45.3 144.47C44.32 144.47 43.67 145.05 43.68 145.94ZM50.73 148.03C50.73 150.3 51.48 151.58 52.75 151.58C54.01 151.58 54.76 150.3 54.76 148.03C54.76 145.77 54.01 144.47 52.75 144.47C51.48 144.47 50.73 145.77 50.73 148.03ZM58.23 148.03C58.23 150.3 58.98 151.58 60.25 151.58C61.51 151.58 62.26 150.3 62.26 148.03C62.26 145.77 61.51 144.47 60.25 144.47C58.98 144.47 58.23 145.77 58.23 148.03ZM43.37 150.03C43.36 150.96 44.1 151.58 45.3 151.58C46.48 151.58 47.21 150.96 47.22 150.03C47.21 149.04 46.4 148.34 45.3 148.34C44.18 148.34 43.36 149.04 43.37 150.03Z" fill="#697077" fill-opacity="1.000000" fill-rule="evenodd"/>
	<line id="line" x1="72.000000" y1="147.399902" x2="519.191406" y2="147.399902" stroke="#DDE1E6" stroke-opacity="1.000000" stroke-width="1.000000"/>
	<rect id="graph-label" rx="-0.500000" width="502.191650" height="14.000000" transform="translate(16.500000 166.100098)" fill="#FFFFFF" fill-opacity="0"/>
	<rect id="graph-label" rx="-0.500000" width="47.000000" height="14.000000" transform="translate(16.500000 166.100098)" fill="#FFFFFF" fill-opacity="0"/>
	<path id="Label" d="M55.78 173.23C55.78 176.08 54.67 177.72 52.75 177.72C50.82 177.72 49.71 176.08 49.71 173.23C49.71 170.4 50.83 168.75 52.75 168.75C54.66 168.75 55.78 170.4 55.78 173.23ZM63.28 173.23C63.28 176.08 62.17 177.72 60.25 177.72C58.32 177.72 57.21 176.08 57.21 173.23C57.21 170.4 58.33 168.75 60.25 168.75C62.16 168.75 63.28 170.4 63.28 173.23ZM44.62 177.6L43.51 177.6L47.41 169.87L47.41 169.81L42.91 169.81L42.91 168.87L48.5 168.87L48.5 169.86L44.62 177.6ZM50.73 173.23C50.73 175.5 51.48 176.78 52.75 176.78C54.01 176.78 54.76 175.5 54.76 173.23C54.76 170.97 54.01 169.67 52.75 169.67C51.48 169.67 50.73 170.97 50.73 173.23ZM58.23 173.23C58.23 175.5 58.98 176.78 60.25 176.78C61.51 176.78 62.26 175.5 62.26 173.23C62.26 170.97 61.51 169.67 60.25 169.67C58.98 169.67 58.23 170.97 58.23 173.23Z" fill="#697077" fill-opacity="1.000000" fill-rule="evenodd"/>
	<line id="line" x1="72.000000" y1="172.600098" x2="519.191406" y2="172.600098" stroke="#DDE1E6" stroke-opacity="1.000000" stroke-width="1.000000"/>
	<rect id="graph-label" rx="-0.500000" width="502.191650" height="14.000000" transform="translate(16.500000 191.300049)" fill="#FFFFFF" fill-opacity="0"/>
	<rect id="graph-label" rx="-0.500000" width="47.000000" height="14.000000" transform="translate(16.500000 191.300049)" fill="#FFFFFF" fill-opacity="0"/>
	<path id="Label" d="M48.23 199.98C48.23 201.61 47.08 202.94 45.31 202.92C43.88 202.9 42.28 202 42.28 198.77C42.28 195.69 43.48 193.95 45.45 193.95C46.91 193.95 47.95 194.89 48.16 196.25L47.12 196.25C46.92 195.47 46.37 194.89 45.45 194.89C44.1 194.89 43.27 196.12 43.27 198.25L43.34 198.25C43.81 197.53 44.59 197.09 45.48 197.09C46.98 197.09 48.23 198.3 48.23 199.98ZM55.78 198.43C55.78 201.28 54.67 202.92 52.75 202.92C50.82 202.92 49.71 201.28 49.71 198.43C49.71 195.6 50.83 193.95 52.75 193.95C54.66 193.95 55.78 195.6 55.78 198.43ZM63.28 198.43C63.28 201.28 62.17 202.92 60.25 202.92C58.32 202.92 57.21 201.28 57.21 198.43C57.21 195.6 58.33 193.95 60.25 193.95C62.16 193.95 63.28 195.6 63.28 198.43ZM50.73 198.43C50.73 200.7 51.48 201.98 52.75 201.98C54.01 201.98 54.76 200.7 54.76 198.43C54.76 196.17 54.01 194.87 52.75 194.87C51.48 194.87 50.73 196.17 50.73 198.43ZM58.23 198.43C58.23 200.7 58.98 201.98 60.25 201.98C61.51 201.98 62.26 200.7 62.26 198.43C62.26 196.17 61.51 194.87 60.25 194.87C58.98 194.87 58.23 196.17 58.23 198.43ZM43.42 200C43.42 201.04 44.22 201.98 45.31 201.98C46.38 201.98 47.2 201.09 47.2 199.98C47.2 198.9 46.42 198.02 45.35 198.02C44.27 198.02 43.43 198.95 43.42 200Z" fill="#697077" fill-opacity="1.000000" fill-rule="evenodd"/>
	<line id="line" x1="72.000000" y1="197.800049" x2="519.191406" y2="197.800049" stroke="#DDE1E6" stroke-opacity="1.000000" stroke-width="1.000000"/>
	<rect id="graph-label" rx="-0.500000" width="502.191650" height="14.000000" transform="translate(16.500000 216.500000)" fill="#FFFFFF" fill-opacity="0"/>
	<rect id="graph-label" rx="-0.500000" width="47.000000" height="14.000000" transform="translate(16.500000 216.500000)" fill="#FFFFFF" fill-opacity="0"/>
	<path id="Label" d="M55.78 223.63C55.78 226.48 54.67 228.12 52.75 228.12C50.82 228.12 49.71 226.48 49.71 223.63C49.71 220.8 50.83 219.15 52.75 219.15C54.66 219.15 55.78 220.8 55.78 223.63ZM63.28 223.63C63.28 226.48 62.17 228.12 60.25 228.12C58.32 228.12 57.21 226.48 57.21 223.63C57.21 220.8 58.33 219.15 60.25 219.15C62.16 219.15 63.28 220.8 63.28 223.63ZM48.21 225.22C48.21 226.89 46.99 228.12 45.33 228.12C43.83 228.12 42.68 227.14 42.62 225.81L43.64 225.81C43.72 226.6 44.44 227.18 45.33 227.18C46.4 227.18 47.19 226.35 47.19 225.23C47.19 224.09 46.38 223.25 45.26 223.24C44.73 223.23 44.11 223.42 43.74 223.68L42.76 223.56L43.28 219.27L47.82 219.27L47.82 220.21L44.17 220.21L43.86 222.78L43.91 222.78C44.27 222.49 44.84 222.29 45.43 222.29C47.03 222.29 48.21 223.52 48.21 225.22ZM50.73 223.63C50.73 225.9 51.48 227.18 52.75 227.18C54.01 227.18 54.76 225.9 54.76 223.63C54.76 221.37 54.01 220.07 52.75 220.07C51.48 220.07 50.73 221.37 50.73 223.63ZM58.23 223.63C58.23 225.9 58.98 227.18 60.25 227.18C61.51 227.18 62.26 225.9 62.26 223.63C62.26 221.37 61.51 220.07 60.25 220.07C58.98 220.07 58.23 221.37 58.23 223.63Z" fill="#697077" fill-opacity="1.000000" fill-rule="evenodd"/>
	<line id="line" x1="72.000000" y1="223.000000" x2="519.191406" y2="223.000000" stroke="#DDE1E6" stroke-opacity="1.000000" stroke-width="1.000000"/>
	<rect id="graph-label" rx="-0.500000" width="502.191650" height="14.000000" transform="translate(16.500000 241.699951)" fill="#FFFFFF" fill-opacity="0"/>
	<rect id="graph-label" rx="-0.500000" width="47.000000" height="14.000000" transform="translate(16.500000 241.699951)" fill="#FFFFFF" fill-opacity="0"/>
	<path id="Label" d="M55.78 248.83C55.78 251.68 54.67 253.32 52.75 253.32C50.82 253.32 49.71 251.68 49.71 248.83C49.71 246 50.83 244.35 52.75 244.35C54.66 244.35 55.78 246 55.78 248.83ZM63.28 248.83C63.28 251.68 62.17 253.32 60.25 253.32C58.32 253.32 57.21 251.68 57.21 248.83C57.21 246 58.33 244.35 60.25 244.35C62.16 244.35 63.28 246 63.28 248.83ZM46.1 251.41L41.99 251.41L41.99 250.54L45.83 244.47L47.1 244.47L47.1 250.47L48.3 250.47L48.3 251.41L47.1 251.41L47.1 253.2L46.1 253.2L46.1 251.41ZM50.73 248.83C50.73 251.1 51.48 252.38 52.75 252.38C54.01 252.38 54.76 251.1 54.76 248.83C54.76 246.57 54.01 245.27 52.75 245.27C51.48 245.27 50.73 246.57 50.73 248.83ZM58.23 248.83C58.23 251.1 58.98 252.38 60.25 252.38C61.51 252.38 62.26 251.1 62.26 248.83C62.26 246.57 61.51 245.27 60.25 245.27C58.98 245.27 58.23 246.57 58.23 248.83ZM43.13 250.47L46.1 250.47L46.1 245.82L46.03 245.82L43.13 250.4L43.13 250.47Z" fill="#697077" fill-opacity="1.000000" fill-rule="evenodd"/>
	<line id="line" x1="72.000000" y1="248.199951" x2="519.191406" y2="248.199951" stroke="#DDE1E6" stroke-opacity="1.000000" stroke-width="1.000000"/>
	<rect id="graph-label" rx="-0.500000" width="502.191650" height="14.000000" transform="translate(16.500000 266.899902)" fill="#FFFFFF" fill-opacity="0"/>
	<rect id="graph-label" rx="-0.500000" width="47.000000" height="14.000000" transform="translate(16.500000 266.899902)" fill="#FFFFFF" fill-opacity="0"/>
	<path id="Label" d="M48.16 276.03C48.16 277.45 46.9 278.51 45.21 278.51C43.52 278.51 42.31 277.59 42.25 276.21L43.32 276.21C43.38 277.06 44.18 277.58 45.19 277.58C46.32 277.58 47.12 276.95 47.12 276.03C47.12 275.06 46.38 274.39 45.06 274.39L44.36 274.39L44.36 273.45L45.06 273.45C46.09 273.45 46.81 272.85 46.81 271.94C46.81 271.05 46.19 270.47 45.23 270.47C44.32 270.47 43.49 270.98 43.46 271.85L42.43 271.85C42.48 270.48 43.74 269.55 45.25 269.55C46.86 269.55 47.84 270.65 47.84 271.88C47.84 272.87 47.29 273.59 46.4 273.86L46.4 273.93C47.5 274.11 48.16 274.92 48.16 276.03ZM55.78 274.03C55.78 276.88 54.67 278.51 52.75 278.51C50.82 278.51 49.71 276.88 49.71 274.03C49.71 271.2 50.83 269.55 52.75 269.55C54.66 269.55 55.78 271.2 55.78 274.03ZM63.28 274.03C63.28 276.88 62.17 278.51 60.25 278.51C58.32 278.51 57.21 276.88 57.21 274.03C57.21 271.2 58.33 269.55 60.25 269.55C62.16 269.55 63.28 271.2 63.28 274.03ZM50.73 274.03C50.73 276.3 51.48 277.58 52.75 277.58C54.01 277.58 54.76 276.3 54.76 274.03C54.76 271.76 54.01 270.47 52.75 270.47C51.48 270.47 50.73 271.76 50.73 274.03ZM58.23 274.03C58.23 276.3 58.98 277.58 60.25 277.58C61.51 277.58 62.26 276.3 62.26 274.03C62.26 271.76 61.51 270.47 60.25 270.47C58.98 270.47 58.23 271.76 58.23 274.03Z" fill="#697077" fill-opacity="1.000000" fill-rule="evenodd"/>
	<line id="line" x1="72.000000" y1="273.399902" x2="519.191406" y2="273.399902" stroke="#DDE1E6" stroke-opacity="1.000000" stroke-width="1.000000"/>
	<rect id="graph-label" rx="-0.500000" width="502.191650" height="14.000000" transform="translate(16.500000 292.100098)" fill="#FFFFFF" fill-opacity="0"/>
	<rect id="graph-label" rx="-0.500000" width="47.000000" height="14.000000" transform="translate(16.500000 292.100098)" fill="#FFFFFF" fill-opacity="0"/>
	<path id="Label" d="M48.14 303.6L42.64 303.6L42.64 302.83L45.52 299.68C46.53 298.57 47 297.97 47 297.17C47 296.25 46.28 295.67 45.33 295.67C44.32 295.67 43.68 296.33 43.68 297.32L42.67 297.32C42.67 295.79 43.83 294.75 45.36 294.75C46.9 294.75 47.99 295.82 47.99 297.17C47.99 298.14 47.55 298.89 46.05 300.49L44.09 302.59L44.09 302.66L48.14 302.66L48.14 303.6ZM55.78 299.23C55.78 302.08 54.67 303.72 52.75 303.72C50.82 303.72 49.71 302.08 49.71 299.23C49.71 296.4 50.83 294.75 52.75 294.75C54.66 294.75 55.78 296.4 55.78 299.23ZM63.28 299.23C63.28 302.08 62.17 303.72 60.25 303.72C58.32 303.72 57.21 302.08 57.21 299.23C57.21 296.4 58.33 294.75 60.25 294.75C62.16 294.75 63.28 296.4 63.28 299.23ZM50.73 299.23C50.73 301.5 51.48 302.78 52.75 302.78C54.01 302.78 54.76 301.5 54.76 299.23C54.76 296.97 54.01 295.67 52.75 295.67C51.48 295.67 50.73 296.97 50.73 299.23ZM58.23 299.23C58.23 301.5 58.98 302.78 60.25 302.78C61.51 302.78 62.26 301.5 62.26 299.23C62.26 296.97 61.51 295.67 60.25 295.67C58.98 295.67 58.23 296.97 58.23 299.23Z" fill="#697077" fill-opacity="1.000000" fill-rule="evenodd"/>
	<line id="line" x1="72.000000" y1="298.600098" x2="519.191406" y2="298.600098" stroke="#DDE1E6" stroke-opacity="1.000000" stroke-width="1.000000"/>
	<rect id="graph-label" rx="-0.500000" width="502.191650" height="14.000000" transform="translate(16.500000 317.300049)" fill="#FFFFFF" fill-opacity="0"/>
	<rect id="graph-label" rx="-0.500000" width="47.000000" height="14.000000" transform="translate(16.500000 317.300049)" fill="#FFFFFF" fill-opacity="0"/>
	<path id="Label" d="M55.78 324.43C55.78 327.28 54.67 328.92 52.75 328.92C50.82 328.92 49.71 327.28 49.71 324.43C49.71 321.6 50.83 319.95 52.75 319.95C54.66 319.95 55.78 321.6 55.78 324.43ZM63.28 324.43C63.28 327.28 62.17 328.92 60.25 328.92C58.32 328.92 57.21 327.28 57.21 324.43C57.21 321.6 58.33 319.95 60.25 319.95C62.16 319.95 63.28 321.6 63.28 324.43ZM46.34 320.07L47.39 320.07L47.39 328.8L46.34 328.8L46.34 321.18L46.28 321.18L44.15 322.59L44.15 321.52L46.34 320.07ZM50.73 324.43C50.73 326.7 51.48 327.98 52.75 327.98C54.01 327.98 54.76 326.7 54.76 324.43C54.76 322.17 54.01 320.87 52.75 320.87C51.48 320.87 50.73 322.17 50.73 324.43ZM58.23 324.43C58.23 326.7 58.98 327.98 60.25 327.98C61.51 327.98 62.26 326.7 62.26 324.43C62.26 322.17 61.51 320.87 60.25 320.87C58.98 320.87 58.23 322.17 58.23 324.43Z" fill="#697077" fill-opacity="1.000000" fill-rule="evenodd"/>
	<line id="line" x1="72.000000" y1="323.800049" x2="519.191406" y2="323.800049" stroke="#DDE1E6" stroke-opacity="1.000000" stroke-width="1.000000"/>
	<rect id="graph-label" rx="-0.500000" width="502.191650" height="14.000000" transform="translate(16.500000 342.500000)" fill="#FFFFFF" fill-opacity="0"/>
	<rect id="graph-label" rx="-0.500000" width="47.000000" height="14.000000" transform="translate(16.500000 342.500000)" fill="#FFFFFF" fill-opacity="0"/>
	<path id="Label" d="M63.28 349.63C63.28 352.48 62.17 354.12 60.25 354.12C58.32 354.12 57.21 352.48 57.21 349.63C57.21 346.8 58.33 345.15 60.25 345.15C62.16 345.15 63.28 346.8 63.28 349.63ZM58.23 349.63C58.23 351.9 58.98 353.18 60.25 353.18C61.51 353.18 62.26 351.9 62.26 349.63C62.26 347.37 61.51 346.07 60.25 346.07C58.98 346.07 58.23 347.37 58.23 349.63Z" fill="#697077" fill-opacity="1.000000" fill-rule="evenodd"/>
	<line id="line" x1="72.000000" y1="349.000000" x2="519.191406" y2="349.000000" stroke="#DDE1E6" stroke-opacity="1.000000" stroke-width="1.000000"/>
	<path id="line" d="M73 288.7L92.52 278.42L111.71 260.14L130.89 251.06L150.42 269.08L169.6 265.07L189.13 260.14L208.66 231.14L227.84 231.14L247.37 240.39L266.55 254.4L286.08 244.39L305.26 199.69L324.79 191.02L343.97 203.7L363.15 208.37L382.68 199.69L401.86 217.71L421.39 220.37L440.57 231.14L460.1 249.06L479.28 240.39L498.81 212.37L518 157" stroke="#A2A9B0" stroke-opacity="1.000000" stroke-width="2.000000" stroke-linejoin="round" stroke-linecap="round"/>
	<path id="border" d="M73 288.7L92.52 278.42L111.71 260.14L130.89 251.06L150.42 269.08L169.6 265.07L189.13 260.14L208.66 231.14L227.84 231.14L247.37 240.39L266.55 254.4L286.08 244.39L305.26 199.69L324.79 191.02L343.97 203.7L363.15 208.37L382.68 199.69L401.86 217.71L421.39 220.37L440.57 231.14L460.1 249.06L479.28 240.39L498.81 212.37L518 157" stroke="#A2A9B0" stroke-opacity="1.000000" stroke-width="8.000000" stroke-linejoin="round" stroke-linecap="round" stroke-dasharray="0.01 50"/>
	<path id="fill" d="M73 288.7L92.52 278.42L111.71 260.14L130.89 251.06L150.42 269.08L169.6 265.07L189.13 260.14L208.66 231.14L227.84 231.14L247.37 240.39L266.55 254.4L286.08 244.39L305.26 199.69L324.79 191.02L343.97 203.7L363.15 208.37L382.68 199.69L401.86 217.71L421.39 220.37L440.57 231.14L460.1 249.06L479.28 240.39L498.81 212.37L518 157" stroke="#FFFFFF" stroke-opacity="1.000000" stroke-width="6.000000" stroke-linejoin="round" stroke-linecap="round" stroke-dasharray="0.01 50"/>
	<path id="line" d="M73 302.7L92.52 258.06L111.71 240.8L130.89 218.61L150.42 221.08L169.6 211.21L189.13 221.08L208.66 211.21L227.84 216.14L247.37 216.14L266.55 224.78L286.08 224.78L305.26 211.21L324.79 200.74L343.97 193.95L363.15 193.95L382.68 186.56L401.86 178.54L421.39 186.56L440.57 200.74L460.1 229.71L479.28 227.24L496.71 201.7L507.35 172.38L518 128" stroke="#458FF6" stroke-opacity="1.000000" stroke-width="2.000000" stroke-linejoin="round" stroke-linecap="round"/>
	<path id="border" d="M73 302.7L92.52 258.06L111.71 240.8L130.89 218.61L150.42 221.08L169.6 211.21L189.13 221.08L208.66 211.21L227.84 216.14L247.37 216.14L266.55 224.78L286.08 224.78L305.26 211.21L324.79 200.74L343.97 193.95L363.15 193.95L382.68 186.56L401.86 178.54L421.39 186.56L440.57 200.74L460.1 229.71L479.28 227.24L496.71 201.7L507.35 172.38L518 128" stroke="#458FF6" stroke-opacity="1.000000" stroke-width="8.000000" stroke-linejoin="round" stroke-linecap="round" stroke-dasharray="0.01 50"/>
	<path id="fill" d="M73 302.7L92.52 258.06L111.71 240.8L130.89 218.61L150.42 221.08L169.6 211.21L189.13 221.08L208.66 211.21L227.84 216.14L247.37 216.14L266.55 224.78L286.08 224.78L305.26 211.21L324.79 200.74L343.97 193.95L363.15 193.95L382.68 186.56L401.86 178.54L421.39 186.56L440.57 200.74L460.1 229.71L479.28 227.24L496.71 201.7L507.35 172.38L518 128" stroke="#FFFFFF" stroke-opacity="1.000000" stroke-width="6.000000" stroke-linejoin="round" stroke-linecap="round" stroke-dasharray="0.01 50"/>
	<rect id="graph-label" rx="-0.500000" width="16.765970" height="14.000000" transform="translate(64.500000 365.500000)" fill="#FFFFFF" fill-opacity="0"/>
	<path id="Label" d="M68.98 368.27L68.98 377L67.93 377L67.93 373.59L66.02 373.59C65.94 373.59 65.87 373.59 65.79 373.58L63.95 377L62.73 377L64.7 373.39C63.59 373.01 63.07 372.1 63.07 370.95C63.07 369.4 63.99 368.27 66.03 368.27L68.98 368.27ZM66.05 372.63L67.93 372.63L67.93 369.21L66.07 369.21C64.65 369.21 64.11 369.9 64.11 370.95C64.11 371.99 64.65 372.63 66.05 372.63ZM70.96 370.45L71.96 370.45L71.96 373.26L75.1 373.26L75.1 370.45L76.11 370.45L76.11 377L75.1 377L75.1 374.2L71.96 374.2L71.96 377L70.96 377L70.96 370.45ZM81.03 377L77.95 377L77.95 370.45L80.63 370.45C82.03 370.45 82.93 371.14 82.93 372.19C82.93 372.98 82.4 373.4 81.67 373.55C82.38 373.66 83.17 374.21 83.17 375.24C83.17 376.25 82.36 377 81.03 377ZM78.9 371.37L78.9 373.2L80.63 373.2C81.43 373.2 81.92 372.84 81.92 372.26C81.92 371.71 81.43 371.37 80.63 371.37L78.9 371.37ZM78.9 374.06L78.9 376.08L81.03 376.08C81.72 376.08 82.14 375.73 82.14 375.16C82.14 374.48 81.72 374.06 81.03 374.06L78.9 374.06Z" fill="#697077" fill-opacity="1.000000" fill-rule="evenodd"/>
	<rect id="graph-label" rx="-0.500000" width="16.765970" height="14.000000" transform="translate(104.265625 365.500000)" fill="#FFFFFF" fill-opacity="0"/>
	<path id="Label" d="M101.75 372.77C101.75 370.72 103.15 369.31 105.09 369.31L105.26 369.31L105.26 368.12L106.32 368.12L106.32 369.31L106.47 369.31C108.42 369.31 109.81 370.71 109.81 372.75C109.81 374.8 108.42 376.21 106.47 376.21L106.32 376.21L106.32 377.35L105.26 377.35L105.26 376.21L105.09 376.21C103.15 376.21 101.75 374.81 101.75 372.77ZM105.26 370.25L105.09 370.25C103.61 370.25 102.81 371.23 102.81 372.77C102.81 374.29 103.61 375.27 105.09 375.27L105.26 375.27L105.26 370.25ZM106.47 370.25L106.32 370.25L106.32 375.27L106.47 375.27C107.96 375.27 108.76 374.29 108.76 372.75C108.76 371.23 107.96 370.25 106.47 370.25ZM116.8 375.48C116.5 376.47 115.53 377.13 114.2 377.13C112.3 377.13 111.14 375.79 111.14 373.77C111.14 371.76 112.32 370.37 114.09 370.37C115.46 370.37 116.91 371.2 116.91 373.64L116.91 374.06L112.15 374.06C112.2 375.47 113.02 376.23 114.2 376.23C114.98 376.23 115.58 375.89 115.83 375.21L116.8 375.48ZM121.52 377L118.44 377L118.44 370.45L121.12 370.45C122.52 370.45 123.42 371.14 123.42 372.19C123.42 372.98 122.89 373.4 122.16 373.55C122.88 373.66 123.66 374.21 123.66 375.24C123.66 376.25 122.85 377 121.52 377ZM114.09 371.27C112.94 371.27 112.22 372.18 112.15 373.2L115.88 373.2C115.88 372.09 115.18 371.27 114.09 371.27ZM119.39 371.37L119.39 373.2L121.12 373.2C121.92 373.2 122.41 372.84 122.41 372.26C122.41 371.71 121.92 371.37 121.12 371.37L119.39 371.37ZM119.39 374.06L119.39 376.08L121.52 376.08C122.22 376.08 122.63 375.73 122.63 375.16C122.63 374.48 122.22 374.06 121.52 374.06L119.39 374.06Z" fill="#697077" fill-opacity="1.000000" fill-rule="evenodd"/>
	<rect id="graph-label" rx="-0.500000" width="16.765970" height="14.000000" transform="translate(144.032227 365.500000)" fill="#FFFFFF" fill-opacity="0"/>
	<path id="Label" d="M138.13 377L138.13 368.27L139.39 368.27L142.35 375.51L142.46 375.51L145.42 368.27L146.68 368.27L146.68 377L145.69 377L145.69 370.37L145.61 370.37L142.88 377L141.93 377L139.2 370.37L139.11 370.37L139.11 377L138.13 377ZM152.53 376.11C152.33 376.54 151.73 377.15 150.59 377.15C149.34 377.15 148.35 376.42 148.35 375.14C148.35 373.64 149.68 373.37 150.89 373.21C152.09 373.06 152.58 373.1 152.58 372.62L152.58 372.58C152.58 371.74 152.13 371.25 151.2 371.25C150.24 371.25 149.72 371.76 149.49 372.24L148.54 371.9C149.05 370.71 150.18 370.37 151.16 370.37C152 370.37 153.59 370.6 153.59 372.68L153.59 377L152.58 377L152.58 376.11L152.53 376.11ZM156.43 379.45L155.43 379.45L155.43 370.45L156.4 370.45L156.4 371.49L156.52 371.49C156.74 371.15 157.13 370.37 158.41 370.37C160.06 370.37 161.21 371.68 161.21 373.74C161.21 375.82 160.06 377.13 158.43 377.13C157.17 377.13 156.74 376.35 156.52 375.99L156.43 375.99L156.43 379.45ZM164.05 371.39L161.89 371.39L161.89 370.45L167.2 370.45L167.2 371.39L165.06 371.39L165.06 377L164.05 377L164.05 371.39ZM158.29 371.27C157.06 371.27 156.42 372.26 156.42 373.72C156.42 375.21 157.08 376.23 158.29 376.23C159.55 376.23 160.2 375.12 160.2 373.72C160.2 372.34 159.57 371.27 158.29 371.27ZM149.36 375.19C149.36 375.89 149.94 376.25 150.74 376.25C151.93 376.25 152.58 375.45 152.58 374.63L152.58 373.71C152.41 373.91 151.27 374.03 150.84 374.08C150.06 374.18 149.36 374.42 149.36 375.19Z" fill="#697077" fill-opacity="1.000000" fill-rule="evenodd"/>
	<rect id="graph-label" rx="-0.500000" width="16.765968" height="14.000000" transform="translate(183.797852 365.500000)" fill="#FFFFFF" fill-opacity="0"/>
	<path id="Label" d="M183.26 374.52L182.38 377L181.28 377L184.48 368.27L185.57 368.27L188.78 377L187.67 377L186.79 374.52L183.26 374.52ZM184.99 369.65L183.59 373.59L186.46 373.59L185.06 369.65L184.99 369.65ZM198 379.45L196.99 379.45L196.99 370.45L197.96 370.45L197.96 371.49L198.08 371.49C198.3 371.15 198.7 370.37 199.97 370.37C201.63 370.37 202.77 371.68 202.77 373.74C202.77 375.82 201.63 377.13 199.99 377.13C198.73 377.13 198.3 376.35 198.08 375.99L198 375.99L198 379.45ZM191.01 377L190 377L190 370.45L195.15 370.45L195.15 377L194.14 377L194.14 371.39L191.01 371.39L191.01 377ZM199.86 371.27C198.63 371.27 197.98 372.26 197.98 373.72C197.98 375.21 198.65 376.23 199.86 376.23C201.12 376.23 201.76 375.12 201.76 373.72C201.76 372.34 201.13 371.27 199.86 371.27Z" fill="#697077" fill-opacity="1.000000" fill-rule="evenodd"/>
	<rect id="graph-label" rx="-0.500000" width="16.765968" height="14.000000" transform="translate(223.563477 365.500000)" fill="#FFFFFF" fill-opacity="0"/>
	<path id="Label" d="M220.7 377L220.7 368.27L221.96 368.27L224.93 375.51L225.03 375.51L228 368.27L229.26 368.27L229.26 377L228.27 377L228.27 370.37L228.18 370.37L225.46 377L224.5 377L221.77 370.37L221.69 370.37L221.69 377L220.7 377ZM240.66 369.1C241.26 369.1 241.5 368.71 241.5 368.27L242.43 368.27C242.43 369.19 241.75 369.84 240.66 369.84C239.59 369.84 238.91 369.19 238.91 368.27L239.84 368.27C239.84 368.71 240.06 369.1 240.66 369.1ZM235.1 376.11C234.9 376.54 234.3 377.15 233.16 377.15C231.92 377.15 230.93 376.42 230.93 375.14C230.93 373.64 232.25 373.37 233.47 373.21C234.66 373.06 235.15 373.1 235.15 372.62L235.15 372.58C235.15 371.74 234.7 371.25 233.77 371.25C232.82 371.25 232.29 371.76 232.07 372.24L231.11 371.9C231.63 370.71 232.75 370.37 233.74 370.37C234.58 370.37 236.16 370.6 236.16 372.68L236.16 377L235.15 377L235.15 376.11L235.1 376.11ZM239.01 370.45L239.01 375.51L242.16 370.45L243.32 370.45L243.32 377L242.31 377L242.31 371.93L239.18 377L238 377L238 370.45L239.01 370.45ZM231.94 375.19C231.94 375.89 232.52 376.25 233.31 376.25C234.51 376.25 235.15 375.45 235.15 374.63L235.15 373.71C234.98 373.91 233.84 374.03 233.42 374.08C232.63 374.18 231.94 374.42 231.94 375.19Z" fill="#697077" fill-opacity="1.000000" fill-rule="evenodd"/>
	<rect id="graph-label" rx="-0.500000" width="16.765968" height="14.000000" transform="translate(263.330078 365.500000)" fill="#FFFFFF" fill-opacity="0"/>
	<path id="Label" d="M256.56 377L256.56 368.27L257.6 368.27L257.6 375.14L257.68 375.14L262.45 368.27L263.48 368.27L263.48 377L262.42 377L262.42 370.14L262.33 370.14L257.58 377L256.56 377ZM264.97 370.45L265.98 370.45L265.98 373.31L267.66 373.31C267.81 371.52 268.96 370.37 270.6 370.37C272.37 370.37 273.57 371.71 273.57 373.76C273.57 375.79 272.37 377.13 270.6 377.13C268.98 377.13 267.84 376 267.66 374.25L265.98 374.25L265.98 377L264.97 377L264.97 370.45ZM275.2 370.45L276.21 370.45L276.21 373.26L279.34 373.26L279.34 370.45L280.35 370.45L280.35 377L279.34 377L279.34 374.2L276.21 374.2L276.21 377L275.2 377L275.2 370.45ZM283.2 370.45L283.2 372.82L284.94 372.82C286.47 372.82 287.31 373.69 287.31 374.88C287.31 376.06 286.47 377 284.94 377L282.19 377L282.19 370.45L283.2 370.45ZM268.64 373.76C268.64 375.07 269.25 376.23 270.6 376.23C271.95 376.23 272.56 375.07 272.56 373.76C272.56 372.45 271.95 371.27 270.6 371.27C269.25 371.27 268.64 372.45 268.64 373.76ZM284.94 373.76L283.2 373.76L283.2 376.06L284.94 376.06C285.73 376.06 286.3 375.59 286.3 374.93C286.3 374.24 285.73 373.76 284.94 373.76Z" fill="#697077" fill-opacity="1.000000" fill-rule="evenodd"/>
	<rect id="graph-label" rx="-0.500000" width="16.765968" height="14.000000" transform="translate(303.095703 365.500000)" fill="#FFFFFF" fill-opacity="0"/>
	<path id="Label" d="M296.28 377L296.28 368.27L297.32 368.27L297.32 375.14L297.4 375.14L302.18 368.27L303.2 368.27L303.2 377L302.14 377L302.14 370.14L302.06 370.14L297.3 377L296.28 377ZM304.7 370.45L305.71 370.45L305.71 373.31L307.38 373.31C307.54 371.52 308.68 370.37 310.32 370.37C312.1 370.37 313.29 371.71 313.29 373.76C313.29 375.79 312.1 377.13 310.32 377.13C308.7 377.13 307.56 376 307.38 374.25L305.71 374.25L305.71 377L304.7 377L304.7 370.45ZM314.69 377L314.35 377L314.35 376.06L314.59 376.06C315.37 376.06 315.59 375.55 315.68 373.35L315.79 370.45L320.16 370.45L320.16 377L319.15 377L319.15 371.39L316.75 371.39L316.65 373.72C316.55 375.87 316.14 377 314.69 377ZM323 370.45L323 372.82L324.74 372.82C326.28 372.82 327.11 373.69 327.11 374.88C327.11 376.06 326.28 377 324.74 377L322 377L322 370.45L323 370.45ZM308.36 373.76C308.36 375.07 308.98 376.23 310.32 376.23C311.67 376.23 312.28 375.07 312.28 373.76C312.28 372.45 311.67 371.27 310.32 371.27C308.98 371.27 308.36 372.45 308.36 373.76ZM324.74 373.76L323 373.76L323 376.06L324.74 376.06C325.54 376.06 326.11 375.59 326.11 374.93C326.11 374.24 325.54 373.76 324.74 373.76Z" fill="#697077" fill-opacity="1.000000" fill-rule="evenodd"/>
	<rect id="graph-label" rx="-0.500000" width="16.765968" height="14.000000" transform="translate(342.861328 365.500000)" fill="#FFFFFF" fill-opacity="0"/>
	<path id="Label" d="M343.36 374.52L342.48 377L341.37 377L344.58 368.27L345.67 368.27L348.87 377L347.76 377L346.89 374.52L343.36 374.52ZM345.09 369.65L343.69 373.59L346.55 373.59L345.15 369.65L345.09 369.65ZM353.18 377L350.1 377L350.1 370.45L352.78 370.45C354.18 370.45 355.08 371.14 355.08 372.19C355.08 372.98 354.55 373.4 353.82 373.55C354.53 373.66 355.32 374.21 355.32 375.24C355.32 376.25 354.51 377 353.18 377ZM356.83 370.45L360.87 370.45L360.87 371.39L357.84 371.39L357.84 377L356.83 377L356.83 370.45ZM351.05 371.37L351.05 373.2L352.78 373.2C353.58 373.2 354.07 372.84 354.07 372.26C354.07 371.71 353.58 371.37 352.78 371.37L351.05 371.37ZM351.05 374.06L351.05 376.08L353.18 376.08C353.87 376.08 354.29 375.73 354.29 375.16C354.29 374.48 353.87 374.06 353.18 374.06L351.05 374.06Z" fill="#697077" fill-opacity="1.000000" fill-rule="evenodd"/>
	<rect id="graph-label" rx="-0.500000" width="16.765968" height="14.000000" transform="translate(382.627930 365.500000)" fill="#FFFFFF" fill-opacity="0"/>
	<path id="Label" d="M384.22 368.15C385.98 368.15 387.41 369.21 387.73 371L386.68 371C386.42 369.79 385.38 369.14 384.22 369.14C382.64 369.14 381.39 370.37 381.39 372.63C381.39 374.9 382.64 376.13 384.22 376.13C385.38 376.13 386.42 375.48 386.68 374.27L387.73 374.27C387.41 376.06 385.98 377.12 384.22 377.12C381.99 377.12 380.37 375.39 380.37 372.63C380.37 369.87 381.99 368.15 384.22 368.15ZM394.65 375.48C394.35 376.47 393.38 377.13 392.05 377.13C390.15 377.13 388.99 375.79 388.99 373.77C388.99 371.76 390.17 370.37 391.94 370.37C393.31 370.37 394.76 371.2 394.76 373.64L394.76 374.06L390 374.06C390.05 375.47 390.87 376.23 392.05 376.23C392.83 376.23 393.43 375.89 393.68 375.21L394.65 375.48ZM396.29 370.45L397.29 370.45L397.29 373.26L400.43 373.26L400.43 370.45L401.44 370.45L401.44 377L400.43 377L400.43 374.2L397.29 374.2L397.29 377L396.29 377L396.29 370.45ZM391.94 371.27C390.79 371.27 390.07 372.18 390 373.2L393.73 373.2C393.73 372.09 393.03 371.27 391.94 371.27Z" fill="#697077" fill-opacity="1.000000" fill-rule="evenodd"/>
	<rect id="graph-label" rx="-0.500000" width="16.765968" height="14.000000" transform="translate(422.393555 365.500000)" fill="#FFFFFF" fill-opacity="0"/>
	<path id="Label" d="M424.34 368.15C426.58 368.15 428.2 369.87 428.2 372.63C428.2 375.39 426.58 377.12 424.34 377.12C422.11 377.12 420.49 375.39 420.49 372.63C420.49 369.87 422.11 368.15 424.34 368.15ZM424.34 376.13C425.93 376.13 427.18 374.9 427.18 372.63C427.18 370.37 425.93 369.14 424.34 369.14C422.76 369.14 421.51 370.37 421.51 372.63C421.51 374.9 422.76 376.13 424.34 376.13ZM430.84 377L429.83 377L429.83 370.45L430.84 370.45L430.84 373.3L431.5 373.3L433.86 370.45L435.15 370.45L432.51 373.6L435.19 377L433.89 377L431.74 374.23L430.84 374.23L430.84 377ZM438.07 371.39L435.9 371.39L435.9 370.45L441.22 370.45L441.22 371.39L439.07 371.39L439.07 377L438.07 377L438.07 371.39Z" fill="#697077" fill-opacity="1.000000" fill-rule="evenodd"/>
	<rect id="graph-label" rx="-0.500000" width="16.765968" height="14.000000" transform="translate(462.160156 365.500000)" fill="#FFFFFF" fill-opacity="0"/>
	<path id="Label" d="M461.26 377L460.21 377L460.21 368.27L461.26 368.27L461.26 372.16L465.92 372.16L465.92 368.27L466.98 368.27L466.98 377L465.92 377L465.92 373.09L461.26 373.09L461.26 377ZM474.58 373.76C474.58 375.79 473.39 377.13 471.61 377.13C469.84 377.13 468.65 375.79 468.65 373.76C468.65 371.71 469.84 370.37 471.61 370.37C473.39 370.37 474.58 371.71 474.58 373.76ZM481 377L480.05 377L480.05 374.34L478.29 374.34L476.78 377L475.69 377L477.28 374.2C476.5 373.93 476.04 373.29 476.04 372.39C476.04 371.19 476.9 370.45 478.31 370.45L481 370.45L481 377ZM469.65 373.76C469.65 375.07 470.27 376.23 471.61 376.23C472.96 376.23 473.57 375.07 473.57 373.76C473.57 372.45 472.96 371.27 471.61 371.27C470.27 371.27 469.65 372.45 469.65 373.76ZM478.19 373.4L480.05 373.4L480.05 371.37L478.31 371.37C477.53 371.37 477.05 371.76 477.05 372.39C477.05 373.02 477.48 373.4 478.19 373.4Z" fill="#697077" fill-opacity="1.000000" fill-rule="evenodd"/>
	<rect id="graph-label" rx="-0.500000" width="16.765968" height="14.000000" transform="translate(501.925781 365.500000)" fill="#FFFFFF" fill-opacity="0"/>
	<path id="Label" d="M500.39 379.11L499.39 379.11L499.39 376.06L499.95 376.06C500.53 375.53 501.06 374.46 501.18 371.95L501.36 368.27L506.54 368.27L506.54 376.06L507.55 376.06L507.55 379.09L506.54 379.09L506.54 377L500.39 377L500.39 379.11ZM502.18 371.95C502.08 373.86 501.74 375.22 501.21 376.06L505.54 376.06L505.54 369.21L502.32 369.21L502.18 371.95ZM514.37 375.48C514.06 376.47 513.09 377.13 511.76 377.13C509.87 377.13 508.71 375.79 508.71 373.77C508.71 371.76 509.89 370.37 511.66 370.37C513.02 370.37 514.47 371.2 514.47 373.64L514.47 374.06L509.72 374.06C509.77 375.47 510.58 376.23 511.76 376.23C512.55 376.23 513.14 375.89 513.4 375.21L514.37 375.48ZM517.01 377L516.01 377L516.01 370.45L517.01 370.45L517.01 373.3L517.68 373.3L520.03 370.45L521.32 370.45L518.68 373.6L521.36 377L520.06 377L517.92 374.23L517.01 374.23L517.01 377ZM511.66 371.27C510.51 371.27 509.79 372.18 509.72 373.2L513.45 373.2C513.45 372.09 512.75 371.27 511.66 371.27Z" fill="#697077" fill-opacity="1.000000" fill-rule="evenodd"/>
	<rect id="Dashboard Section" rx="-0.500000" width="534.191650" height="395.000000" transform="translate(0.500000 0.500000)" stroke="#DDE1E6" stroke-opacity="1.000000" stroke-width="1.000000"/>
</svg>
