<svg width="20.004883" height="20.000000" viewBox="0 0 20.0049 20" fill="none" xmlns="http://www.w3.org/2000/svg" xmlns:xlink="http://www.w3.org/1999/xlink">
	<desc>
			Created with Pixso.
	</desc>
	<defs/>
	<path id="Vector" d="M4.37 8.06C4.16 8.68 4.05 9.34 4.05 10C4.05 10.73 4.19 11.43 4.43 12.08C4.73 12.89 5.21 13.63 5.83 14.23C6.45 14.84 7.19 15.31 8.01 15.6C8.82 15.89 9.69 15.99 10.56 15.91C11.42 15.83 12.25 15.56 13 15.13L13 15.13C14.18 14.44 15.08 13.36 15.57 12.08L10.22 12.08L10.22 8.13L19.82 8.13C20.07 9.44 20.06 10.78 19.78 12.08C19.3 14.33 18.06 16.35 16.26 17.79C14.49 19.22 12.28 20 10 20C8.28 20 6.59 19.55 5.1 18.71C3.6 17.87 2.34 16.66 1.45 15.19C0.56 13.73 0.06 12.05 0 10.34C-0.06 8.62 0.33 6.92 1.12 5.4C1.96 3.77 3.23 2.4 4.8 1.45C6.37 0.5 8.16 -0.01 10 0C12.42 0 14.65 0.86 16.38 2.3L13.14 4.95C12.38 4.48 11.53 4.18 10.64 4.09C9.75 3.99 8.85 4.09 8.01 4.39C7.17 4.69 6.4 5.18 5.77 5.81C5.14 6.45 4.67 7.22 4.37 8.06Z" fill="#21272A" fill-opacity="1.000000" fill-rule="nonzero"/>
</svg>
