<svg width="48.000000" height="48.000000" viewBox="0 0 48 48" fill="none" xmlns="http://www.w3.org/2000/svg" xmlns:xlink="http://www.w3.org/1999/xlink">
	<desc>
			Created with Pixso.
	</desc>
	<defs>
		<clipPath id="clip25_3594">
			<rect id="icon / jam-icons / outline &amp; logos / users" rx="-0.500000" width="23.000000" height="23.000000" transform="translate(12.500000 12.500000)" fill="white" fill-opacity="0"/>
		</clipPath>
	</defs>
	<rect id="Icon Container" rx="-0.500000" width="47.000000" height="47.000000" transform="translate(0.500000 0.500000)" fill="#DDE1E6" fill-opacity="1.000000"/>
	<g clip-path="url(#clip25_3594)">
		<path id="Vector" d="M17.53 24.57C17.65 24.51 17.78 24.49 17.92 24.48C18.05 24.48 18.18 24.51 18.31 24.56C18.43 24.61 18.54 24.69 18.64 24.79C18.73 24.88 18.8 24.99 18.85 25.12C18.9 25.24 18.92 25.38 18.92 25.51C18.92 25.64 18.89 25.77 18.83 25.9C18.78 26.02 18.7 26.13 18.6 26.22C18.5 26.31 18.39 26.38 18.26 26.43C17.59 26.69 17.02 27.15 16.62 27.74C16.21 28.33 16 29.04 16 29.76L16 31.5C16 31.76 16.1 32.01 16.29 32.2C16.48 32.39 16.73 32.5 17 32.5L25 32.5C25.26 32.5 25.51 32.39 25.7 32.2C25.89 32.01 26 31.76 26 31.5L26 29.85C26 29.11 25.77 28.38 25.35 27.77C24.93 27.16 24.33 26.69 23.64 26.43C23.51 26.39 23.4 26.32 23.3 26.23C23.2 26.14 23.12 26.03 23.06 25.91C23 25.79 22.97 25.65 22.97 25.52C22.96 25.39 22.98 25.25 23.03 25.13C23.08 25 23.15 24.89 23.25 24.79C23.34 24.7 23.45 24.62 23.57 24.57C23.7 24.51 23.83 24.49 23.96 24.48C24.09 24.48 24.23 24.51 24.35 24.56C25.42 24.97 26.34 25.69 27 26.64C27.65 27.58 28 28.7 28 29.85L28 31.5C28 32.29 27.68 33.05 27.12 33.62C26.55 34.18 25.79 34.5 25 34.5L17 34.5C16.2 34.5 15.44 34.18 14.87 33.62C14.31 33.05 14 32.29 14 31.5L14 29.76C14 28.64 14.33 27.54 14.96 26.62C15.59 25.69 16.49 24.98 17.53 24.57ZM21 14.5C22.06 14.5 23.07 14.92 23.82 15.67C24.57 16.42 25 17.43 25 18.5L25 20.5C25 21.56 24.57 22.57 23.82 23.32C23.07 24.07 22.06 24.5 21 24.5C19.93 24.5 18.92 24.07 18.17 23.32C17.42 22.57 17 21.56 17 20.5L17 18.5C17 17.43 17.42 16.42 18.17 15.67C18.92 14.92 19.93 14.5 21 14.5ZM21 16.5C20.46 16.5 19.96 16.71 19.58 17.08C19.21 17.46 19 17.96 19 18.5L19 20.5C19 21.03 19.21 21.53 19.58 21.91C19.96 22.28 20.46 22.5 21 22.5C21.53 22.5 22.03 22.28 22.41 21.91C22.78 21.53 23 21.03 23 20.5L23 18.5C23 17.96 22.78 17.46 22.41 17.08C22.03 16.71 21.53 16.5 21 16.5ZM30 33.5C29.73 33.5 29.48 33.39 29.29 33.2C29.1 33.01 29 32.76 29 32.5C29 32.23 29.1 31.98 29.29 31.79C29.48 31.6 29.73 31.5 30 31.5L31 31.5C31.26 31.5 31.51 31.39 31.7 31.2C31.89 31.01 32 30.76 32 30.5L32 28.66C32 27.95 31.77 27.25 31.36 26.68C30.94 26.1 30.35 25.67 29.68 25.44C29.55 25.4 29.44 25.34 29.34 25.25C29.24 25.16 29.16 25.06 29.1 24.94C29.04 24.83 29.01 24.7 29 24.57C28.99 24.44 29 24.3 29.05 24.18C29.09 24.05 29.15 23.94 29.24 23.84C29.33 23.74 29.43 23.66 29.55 23.6C29.66 23.54 29.79 23.51 29.92 23.5C30.05 23.49 30.19 23.5 30.31 23.55C31.38 23.9 32.32 24.59 32.98 25.51C33.64 26.42 34 27.53 34 28.66L34 30.5C34 31.29 33.68 32.05 33.12 32.62C32.55 33.18 31.79 33.5 31 33.5L30 33.5ZM27 15.5C26.73 15.5 26.48 15.39 26.29 15.2C26.1 15.01 26 14.76 26 14.5C26 14.23 26.1 13.98 26.29 13.79C26.48 13.6 26.73 13.5 27 13.5C28.06 13.5 29.07 13.92 29.82 14.67C30.57 15.42 31 16.43 31 17.5L31 19.5C31 20.56 30.57 21.57 29.82 22.32C29.07 23.07 28.06 23.5 27 23.5C26.73 23.5 26.48 23.39 26.29 23.2C26.1 23.01 26 22.76 26 22.5C26 22.23 26.1 21.98 26.29 21.79C26.48 21.6 26.73 21.5 27 21.5C27.53 21.5 28.03 21.28 28.41 20.91C28.78 20.53 29 20.03 29 19.5L29 17.5C29 16.96 28.78 16.46 28.41 16.08C28.03 15.71 27.53 15.5 27 15.5Z" fill="#21272A" fill-opacity="1.000000" fill-rule="nonzero"/>
	</g>
</svg>
