<svg width="48.000000" height="48.000000" viewBox="0 0 48 48" fill="none" xmlns="http://www.w3.org/2000/svg" xmlns:xlink="http://www.w3.org/1999/xlink">
	<desc>
			Created with Pixso.
	</desc>
	<defs>
		<clipPath id="clip25_3555">
			<rect id="icon / jam-icons / outline &amp; logos / smiley" rx="-0.500000" width="23.000000" height="23.000000" transform="translate(12.500000 12.500000)" fill="white" fill-opacity="0"/>
		</clipPath>
	</defs>
	<rect id="Icon Container" rx="-0.500000" width="47.000000" height="47.000000" transform="translate(0.500000 0.500000)" fill="#DDE1E6" fill-opacity="1.000000"/>
	<g clip-path="url(#clip25_3555)">
		<path id="Vector" d="M24 34C18.47 34 14 29.52 14 24C14 18.47 18.47 14 24 14C29.52 14 34 18.47 34 24C34 29.52 29.52 34 24 34ZM24 32C26.12 32 28.15 31.15 29.65 29.65C31.15 28.15 32 26.12 32 24C32 21.87 31.15 19.84 29.65 18.34C28.15 16.84 26.12 16 24 16C21.87 16 19.84 16.84 18.34 18.34C16.84 19.84 16 21.87 16 24C16 26.12 16.84 28.15 18.34 29.65C19.84 31.15 21.87 32 24 32ZM20.08 27.39C20.02 27.27 20 27.14 19.99 27.01C19.99 26.88 20.02 26.75 20.07 26.62C20.12 26.5 20.19 26.39 20.28 26.3C20.37 26.2 20.48 26.13 20.6 26.08C20.72 26.02 20.85 26 20.98 25.99C21.11 25.99 21.25 26.02 21.37 26.07C21.49 26.11 21.6 26.19 21.69 26.28C21.79 26.37 21.86 26.48 21.91 26.6C22.09 27.01 22.38 27.35 22.75 27.6C23.12 27.84 23.55 27.97 24 27.97C24.44 27.97 24.87 27.84 25.24 27.6C25.61 27.35 25.9 27.01 26.08 26.6C26.13 26.48 26.2 26.37 26.3 26.28C26.39 26.19 26.5 26.11 26.62 26.07C26.75 26.02 26.88 25.99 27.01 25.99C27.14 26 27.27 26.02 27.39 26.08C27.51 26.13 27.62 26.2 27.71 26.3C27.8 26.39 27.87 26.5 27.92 26.62C27.97 26.75 28 26.88 28 27.01C27.99 27.14 27.97 27.27 27.91 27.39C27.59 28.16 27.04 28.81 26.34 29.27C25.65 29.73 24.83 29.98 24 29.98C23.16 29.98 22.34 29.73 21.65 29.27C20.95 28.81 20.4 28.16 20.08 27.39ZM21 20C21.26 20 21.51 20.1 21.7 20.29C21.89 20.48 22 20.73 22 21L22 23C22 23.26 21.89 23.51 21.7 23.7C21.51 23.89 21.26 24 21 24C20.73 24 20.48 23.89 20.29 23.7C20.1 23.51 20 23.26 20 23L20 21C20 20.73 20.1 20.48 20.29 20.29C20.48 20.1 20.73 20 21 20ZM27 20C27.26 20 27.51 20.1 27.7 20.29C27.89 20.48 28 20.73 28 21L28 23C28 23.26 27.89 23.51 27.7 23.7C27.51 23.89 27.26 24 27 24C26.73 24 26.48 23.89 26.29 23.7C26.1 23.51 26 23.26 26 23L26 21C26 20.73 26.1 20.48 26.29 20.29C26.48 20.1 26.73 20 27 20Z" fill="#21272A" fill-opacity="1.000000" fill-rule="nonzero"/>
	</g>
</svg>
