<svg width="48.000000" height="48.000000" viewBox="0 0 48 48" fill="none" xmlns="http://www.w3.org/2000/svg" xmlns:xlink="http://www.w3.org/1999/xlink">
	<desc>
			Created with Pixso.
	</desc>
	<defs>
		<clipPath id="clip25_3581">
			<rect id="icon / jam-icons / outline &amp; logos / pizza-slice" rx="-0.500000" width="23.000000" height="23.000000" transform="translate(12.500000 12.500000)" fill="white" fill-opacity="0"/>
		</clipPath>
	</defs>
	<rect id="Icon Container" rx="-0.500000" width="47.000000" height="47.000000" transform="translate(0.500000 0.500000)" fill="#DDE1E6" fill-opacity="1.000000"/>
	<g clip-path="url(#clip25_3581)">
		<path id="Vector" d="M18.25 20.88L23.96 30.97L29.58 21.14C28.25 21.04 26.87 20.69 25.34 20.15C24.95 20.01 24.74 19.98 24.56 20C24.41 20.02 22.84 20.57 21.92 20.8C20.76 21.1 19.53 21.12 18.25 20.88ZM16.84 18.39C18.54 19.06 20.07 19.21 21.43 18.87C22.16 18.68 23.91 18.07 24.31 18.02C24.84 17.95 25.34 18.03 26.01 18.26C27.78 18.89 29.3 19.22 30.71 19.17L31.6 17.62C29.2 16.54 26.59 15.99 23.96 16C21.35 15.99 18.78 16.53 16.39 17.59L16.84 18.39L16.84 18.39ZM14.54 16.26C17.45 14.76 20.68 13.99 23.96 14C27.32 14 30.57 14.8 33.46 16.3C33.58 16.36 33.68 16.45 33.77 16.55C33.85 16.66 33.92 16.78 33.95 16.91C33.99 17.04 34 17.17 33.99 17.3C33.97 17.44 33.93 17.57 33.86 17.68L24.83 33.49C24.74 33.64 24.62 33.77 24.46 33.86C24.31 33.95 24.14 33.99 23.96 33.99C23.78 33.99 23.61 33.95 23.46 33.86C23.3 33.77 23.18 33.64 23.09 33.49L14.12 17.65C14.06 17.53 14.02 17.4 14 17.27C13.99 17.13 14 17 14.04 16.87C14.08 16.74 14.14 16.62 14.23 16.52C14.31 16.41 14.42 16.33 14.54 16.27L14.54 16.26ZM22 24C21.73 24 21.48 23.89 21.29 23.7C21.1 23.51 21 23.26 21 23C21 22.73 21.1 22.48 21.29 22.29C21.48 22.1 21.73 22 22 22C22.26 22 22.51 22.1 22.7 22.29C22.89 22.48 23 22.73 23 23C23 23.26 22.89 23.51 22.7 23.7C22.51 23.89 22.26 24 22 24ZM25 27C24.73 27 24.48 26.89 24.29 26.7C24.1 26.51 24 26.26 24 26C24 25.73 24.1 25.48 24.29 25.29C24.48 25.1 24.73 25 25 25C25.26 25 25.51 25.1 25.7 25.29C25.89 25.48 26 25.73 26 26C26 26.26 25.89 26.51 25.7 26.7C25.51 26.89 25.26 27 25 27Z" fill="#21272A" fill-opacity="1.000000" fill-rule="nonzero"/>
	</g>
</svg>
