<svg width="131.581055" height="103.372559" viewBox="0 0 131.581 103.373" fill="none" xmlns="http://www.w3.org/2000/svg" xmlns:xlink="http://www.w3.org/1999/xlink">
	<desc>
			Created with Pixso.
	</desc>
	<defs>
		<linearGradient x1="54.996017" y1="117.875511" x2="-16.783463" y2="-45.413628" id="paint_linear_14_2397_0" gradientUnits="userSpaceOnUse">
			<stop stop-color="#FFFFFF"/>
			<stop offset="1.000000" stop-color="#FFFFFF"/>
		</linearGradient>
		<linearGradient x1="54.996017" y1="117.875511" x2="-16.783463" y2="-45.413628" id="paint_linear_14_2398_0" gradientUnits="userSpaceOnUse">
			<stop stop-color="#FFFFFF"/>
			<stop offset="1.000000" stop-color="#FFFFFF"/>
		</linearGradient>
		<linearGradient x1="85.277390" y1="117.875504" x2="13.497787" y2="-45.413605" id="paint_linear_14_2402_0" gradientUnits="userSpaceOnUse">
			<stop stop-color="#FFFFFF"/>
			<stop offset="1.000000" stop-color="#FFFFFF"/>
		</linearGradient>
		<linearGradient x1="85.277390" y1="117.875504" x2="13.497787" y2="-45.413605" id="paint_linear_14_2403_0" gradientUnits="userSpaceOnUse">
			<stop stop-color="#FFFFFF"/>
			<stop offset="1.000000" stop-color="#FFFFFF"/>
		</linearGradient>
		<linearGradient x1="115.558640" y1="117.875504" x2="43.779037" y2="-45.413605" id="paint_linear_14_2407_0" gradientUnits="userSpaceOnUse">
			<stop stop-color="#FFFFFF"/>
			<stop offset="1.000000" stop-color="#FFFFFF"/>
		</linearGradient>
		<linearGradient x1="115.558640" y1="117.875504" x2="43.779037" y2="-45.413605" id="paint_linear_14_2408_0" gradientUnits="userSpaceOnUse">
			<stop stop-color="#FFFFFF"/>
			<stop offset="1.000000" stop-color="#FFFFFF"/>
		</linearGradient>
		<linearGradient x1="145.839890" y1="117.875504" x2="74.060287" y2="-45.413605" id="paint_linear_14_2412_0" gradientUnits="userSpaceOnUse">
			<stop stop-color="#FFFFFF"/>
			<stop offset="1.000000" stop-color="#FFFFFF"/>
		</linearGradient>
		<linearGradient x1="145.839890" y1="117.875504" x2="74.060287" y2="-45.413605" id="paint_linear_14_2413_0" gradientUnits="userSpaceOnUse">
			<stop stop-color="#FFFFFF"/>
			<stop offset="1.000000" stop-color="#FFFFFF"/>
		</linearGradient>
		<linearGradient x1="176.120163" y1="117.875504" x2="104.340561" y2="-45.413605" id="paint_linear_14_2417_0" gradientUnits="userSpaceOnUse">
			<stop stop-color="#FFFFFF"/>
			<stop offset="1.000000" stop-color="#FFFFFF"/>
		</linearGradient>
		<linearGradient x1="176.120163" y1="117.875504" x2="104.340561" y2="-45.413605" id="paint_linear_14_2418_0" gradientUnits="userSpaceOnUse">
			<stop stop-color="#FFFFFF"/>
			<stop offset="1.000000" stop-color="#FFFFFF"/>
		</linearGradient>
		<linearGradient x1="54.996201" y1="141.398666" x2="-16.783493" y2="-21.888763" id="paint_linear_14_2422_0" gradientUnits="userSpaceOnUse">
			<stop stop-color="#FFFFFF"/>
			<stop offset="1.000000" stop-color="#FFFFFF"/>
		</linearGradient>
		<linearGradient x1="54.996201" y1="141.398666" x2="-16.783493" y2="-21.888763" id="paint_linear_14_2423_0" gradientUnits="userSpaceOnUse">
			<stop stop-color="#FFFFFF"/>
			<stop offset="1.000000" stop-color="#FFFFFF"/>
		</linearGradient>
		<linearGradient x1="85.277512" y1="141.398682" x2="13.497681" y2="-21.888725" id="paint_linear_14_2427_0" gradientUnits="userSpaceOnUse">
			<stop stop-color="#FFFFFF"/>
			<stop offset="1.000000" stop-color="#FFFFFF"/>
		</linearGradient>
		<linearGradient x1="85.277512" y1="141.398682" x2="13.497681" y2="-21.888725" id="paint_linear_14_2428_0" gradientUnits="userSpaceOnUse">
			<stop stop-color="#FFFFFF"/>
			<stop offset="1.000000" stop-color="#FFFFFF"/>
		</linearGradient>
		<linearGradient x1="115.558762" y1="141.398682" x2="43.778931" y2="-21.888725" id="paint_linear_14_2432_0" gradientUnits="userSpaceOnUse">
			<stop stop-color="#FFFFFF"/>
			<stop offset="1.000000" stop-color="#FFFFFF"/>
		</linearGradient>
		<linearGradient x1="115.558762" y1="141.398682" x2="43.778931" y2="-21.888725" id="paint_linear_14_2433_0" gradientUnits="userSpaceOnUse">
			<stop stop-color="#FFFFFF"/>
			<stop offset="1.000000" stop-color="#FFFFFF"/>
		</linearGradient>
		<linearGradient x1="145.840012" y1="141.398682" x2="74.060181" y2="-21.888725" id="paint_linear_14_2437_0" gradientUnits="userSpaceOnUse">
			<stop stop-color="#FFFFFF"/>
			<stop offset="1.000000" stop-color="#FFFFFF"/>
		</linearGradient>
		<linearGradient x1="145.840012" y1="141.398682" x2="74.060181" y2="-21.888725" id="paint_linear_14_2438_0" gradientUnits="userSpaceOnUse">
			<stop stop-color="#FFFFFF"/>
			<stop offset="1.000000" stop-color="#FFFFFF"/>
		</linearGradient>
		<linearGradient x1="176.120285" y1="141.398682" x2="104.340469" y2="-21.888725" id="paint_linear_14_2442_0" gradientUnits="userSpaceOnUse">
			<stop stop-color="#FFFFFF"/>
			<stop offset="1.000000" stop-color="#FFFFFF"/>
		</linearGradient>
		<linearGradient x1="176.120285" y1="141.398682" x2="104.340469" y2="-21.888725" id="paint_linear_14_2443_0" gradientUnits="userSpaceOnUse">
			<stop stop-color="#FFFFFF"/>
			<stop offset="1.000000" stop-color="#FFFFFF"/>
		</linearGradient>
		<linearGradient x1="54.996017" y1="164.876007" x2="-16.783463" y2="1.586861" id="paint_linear_14_2447_0" gradientUnits="userSpaceOnUse">
			<stop stop-color="#FFFFFF"/>
			<stop offset="1.000000" stop-color="#FFFFFF"/>
		</linearGradient>
		<linearGradient x1="54.996017" y1="164.876007" x2="-16.783463" y2="1.586861" id="paint_linear_14_2448_0" gradientUnits="userSpaceOnUse">
			<stop stop-color="#FFFFFF"/>
			<stop offset="1.000000" stop-color="#FFFFFF"/>
		</linearGradient>
		<linearGradient x1="85.277390" y1="164.875992" x2="13.497787" y2="1.586884" id="paint_linear_14_2452_0" gradientUnits="userSpaceOnUse">
			<stop stop-color="#FFFFFF"/>
			<stop offset="1.000000" stop-color="#FFFFFF"/>
		</linearGradient>
		<linearGradient x1="85.277390" y1="164.875992" x2="13.497787" y2="1.586884" id="paint_linear_14_2453_0" gradientUnits="userSpaceOnUse">
			<stop stop-color="#FFFFFF"/>
			<stop offset="1.000000" stop-color="#FFFFFF"/>
		</linearGradient>
		<linearGradient x1="115.558640" y1="164.875992" x2="43.779037" y2="1.586884" id="paint_linear_14_2457_0" gradientUnits="userSpaceOnUse">
			<stop stop-color="#FFFFFF"/>
			<stop offset="1.000000" stop-color="#FFFFFF"/>
		</linearGradient>
		<linearGradient x1="115.558640" y1="164.875992" x2="43.779037" y2="1.586884" id="paint_linear_14_2458_0" gradientUnits="userSpaceOnUse">
			<stop stop-color="#FFFFFF"/>
			<stop offset="1.000000" stop-color="#FFFFFF"/>
		</linearGradient>
		<linearGradient x1="145.839890" y1="164.875992" x2="74.060287" y2="1.586884" id="paint_linear_14_2462_0" gradientUnits="userSpaceOnUse">
			<stop stop-color="#FFFFFF"/>
			<stop offset="1.000000" stop-color="#FFFFFF"/>
		</linearGradient>
		<linearGradient x1="145.839890" y1="164.875992" x2="74.060287" y2="1.586884" id="paint_linear_14_2463_0" gradientUnits="userSpaceOnUse">
			<stop stop-color="#FFFFFF"/>
			<stop offset="1.000000" stop-color="#FFFFFF"/>
		</linearGradient>
		<linearGradient x1="176.120163" y1="164.875992" x2="104.340561" y2="1.586884" id="paint_linear_14_2467_0" gradientUnits="userSpaceOnUse">
			<stop stop-color="#FFFFFF"/>
			<stop offset="1.000000" stop-color="#FFFFFF"/>
		</linearGradient>
		<linearGradient x1="176.120163" y1="164.875992" x2="104.340561" y2="1.586884" id="paint_linear_14_2468_0" gradientUnits="userSpaceOnUse">
			<stop stop-color="#FFFFFF"/>
			<stop offset="1.000000" stop-color="#FFFFFF"/>
		</linearGradient>
		<linearGradient x1="54.996017" y1="188.400909" x2="-16.783463" y2="25.111763" id="paint_linear_14_2472_0" gradientUnits="userSpaceOnUse">
			<stop stop-color="#FFFFFF"/>
			<stop offset="1.000000" stop-color="#FFFFFF"/>
		</linearGradient>
		<linearGradient x1="54.996017" y1="188.400909" x2="-16.783463" y2="25.111763" id="paint_linear_14_2473_0" gradientUnits="userSpaceOnUse">
			<stop stop-color="#FFFFFF"/>
			<stop offset="1.000000" stop-color="#FFFFFF"/>
		</linearGradient>
		<linearGradient x1="85.277390" y1="188.400894" x2="13.497787" y2="25.111786" id="paint_linear_14_2477_0" gradientUnits="userSpaceOnUse">
			<stop stop-color="#FFFFFF"/>
			<stop offset="1.000000" stop-color="#FFFFFF"/>
		</linearGradient>
		<linearGradient x1="85.277390" y1="188.400894" x2="13.497787" y2="25.111786" id="paint_linear_14_2478_0" gradientUnits="userSpaceOnUse">
			<stop stop-color="#FFFFFF"/>
			<stop offset="1.000000" stop-color="#FFFFFF"/>
		</linearGradient>
		<linearGradient x1="115.558640" y1="188.400894" x2="43.779037" y2="25.111786" id="paint_linear_14_2482_0" gradientUnits="userSpaceOnUse">
			<stop stop-color="#FFFFFF"/>
			<stop offset="1.000000" stop-color="#FFFFFF"/>
		</linearGradient>
		<linearGradient x1="115.558640" y1="188.400894" x2="43.779037" y2="25.111786" id="paint_linear_14_2483_0" gradientUnits="userSpaceOnUse">
			<stop stop-color="#FFFFFF"/>
			<stop offset="1.000000" stop-color="#FFFFFF"/>
		</linearGradient>
		<linearGradient x1="145.839890" y1="188.400894" x2="74.060287" y2="25.111786" id="paint_linear_14_2487_0" gradientUnits="userSpaceOnUse">
			<stop stop-color="#FFFFFF"/>
			<stop offset="1.000000" stop-color="#FFFFFF"/>
		</linearGradient>
		<linearGradient x1="145.839890" y1="188.400894" x2="74.060287" y2="25.111786" id="paint_linear_14_2488_0" gradientUnits="userSpaceOnUse">
			<stop stop-color="#FFFFFF"/>
			<stop offset="1.000000" stop-color="#FFFFFF"/>
		</linearGradient>
		<linearGradient x1="176.120163" y1="188.400894" x2="104.340561" y2="25.111786" id="paint_linear_14_2492_0" gradientUnits="userSpaceOnUse">
			<stop stop-color="#FFFFFF"/>
			<stop offset="1.000000" stop-color="#FFFFFF"/>
		</linearGradient>
		<linearGradient x1="176.120163" y1="188.400894" x2="104.340561" y2="25.111786" id="paint_linear_14_2493_0" gradientUnits="userSpaceOnUse">
			<stop stop-color="#FFFFFF"/>
			<stop offset="1.000000" stop-color="#FFFFFF"/>
		</linearGradient>
		<linearGradient x1="54.996017" y1="211.876984" x2="-16.783463" y2="48.587837" id="paint_linear_14_2497_0" gradientUnits="userSpaceOnUse">
			<stop stop-color="#FFFFFF"/>
			<stop offset="1.000000" stop-color="#FFFFFF"/>
		</linearGradient>
		<linearGradient x1="54.996017" y1="211.876984" x2="-16.783463" y2="48.587837" id="paint_linear_14_2498_0" gradientUnits="userSpaceOnUse">
			<stop stop-color="#FFFFFF"/>
			<stop offset="1.000000" stop-color="#FFFFFF"/>
		</linearGradient>
		<linearGradient x1="85.277390" y1="211.876968" x2="13.497787" y2="48.587860" id="paint_linear_14_2502_0" gradientUnits="userSpaceOnUse">
			<stop stop-color="#FFFFFF"/>
			<stop offset="1.000000" stop-color="#FFFFFF"/>
		</linearGradient>
		<linearGradient x1="85.277390" y1="211.876968" x2="13.497787" y2="48.587860" id="paint_linear_14_2503_0" gradientUnits="userSpaceOnUse">
			<stop stop-color="#FFFFFF"/>
			<stop offset="1.000000" stop-color="#FFFFFF"/>
		</linearGradient>
		<linearGradient x1="115.558640" y1="211.876968" x2="43.779037" y2="48.587860" id="paint_linear_14_2507_0" gradientUnits="userSpaceOnUse">
			<stop stop-color="#FFFFFF"/>
			<stop offset="1.000000" stop-color="#FFFFFF"/>
		</linearGradient>
		<linearGradient x1="115.558640" y1="211.876968" x2="43.779037" y2="48.587860" id="paint_linear_14_2508_0" gradientUnits="userSpaceOnUse">
			<stop stop-color="#FFFFFF"/>
			<stop offset="1.000000" stop-color="#FFFFFF"/>
		</linearGradient>
		<linearGradient x1="145.839890" y1="211.876968" x2="74.060287" y2="48.587860" id="paint_linear_14_2512_0" gradientUnits="userSpaceOnUse">
			<stop stop-color="#FFFFFF"/>
			<stop offset="1.000000" stop-color="#FFFFFF"/>
		</linearGradient>
		<linearGradient x1="145.839890" y1="211.876968" x2="74.060287" y2="48.587860" id="paint_linear_14_2513_0" gradientUnits="userSpaceOnUse">
			<stop stop-color="#FFFFFF"/>
			<stop offset="1.000000" stop-color="#FFFFFF"/>
		</linearGradient>
		<linearGradient x1="176.120163" y1="211.876968" x2="104.340561" y2="48.587860" id="paint_linear_14_2517_0" gradientUnits="userSpaceOnUse">
			<stop stop-color="#FFFFFF"/>
			<stop offset="1.000000" stop-color="#FFFFFF"/>
		</linearGradient>
		<linearGradient x1="176.120163" y1="211.876968" x2="104.340561" y2="48.587860" id="paint_linear_14_2518_0" gradientUnits="userSpaceOnUse">
			<stop stop-color="#FFFFFF"/>
			<stop offset="1.000000" stop-color="#FFFFFF"/>
		</linearGradient>
	</defs>
	<g opacity="0.260000">
		<mask id="mask14_2395" mask-type="alpha" maskUnits="userSpaceOnUse" x="0.000000" y="0.000000" width="10.457031" height="9.370972">
			<path id="Vector" d="M10.45 4.68C10.45 7.27 8.11 9.37 5.22 9.37C2.34 9.37 0 7.27 0 4.68C0 2.09 2.34 0 5.22 0C8.11 0 10.45 2.09 10.45 4.68Z" fill="url(#paint_linear_14_2397_0)" fill-opacity="1.000000" fill-rule="evenodd"/>
		</mask>
		<g mask="url(#mask14_2395)">
			<path id="Vector" d="M10.45 4.68C10.45 7.27 8.11 9.37 5.22 9.37C2.34 9.37 0 7.27 0 4.68C0 2.09 2.34 0 5.22 0C8.11 0 10.45 2.09 10.45 4.68Z" fill="url(#paint_linear_14_2398_0)" fill-opacity="1.000000" fill-rule="evenodd"/>
		</g>
		<mask id="mask14_2400" mask-type="alpha" maskUnits="userSpaceOnUse" x="30.281250" y="0.000000" width="10.457031" height="9.370972">
			<path id="Vector" d="M40.73 4.68C40.73 7.27 38.39 9.37 35.5 9.37C32.62 9.37 30.28 7.27 30.28 4.68C30.28 2.09 32.62 0 35.5 0C38.39 0 40.73 2.09 40.73 4.68Z" fill="url(#paint_linear_14_2402_0)" fill-opacity="1.000000" fill-rule="evenodd"/>
		</mask>
		<g mask="url(#mask14_2400)">
			<path id="Vector" d="M40.73 4.68C40.73 7.27 38.39 9.37 35.5 9.37C32.62 9.37 30.28 7.27 30.28 4.68C30.28 2.09 32.62 0 35.5 0C38.39 0 40.73 2.09 40.73 4.68Z" fill="url(#paint_linear_14_2403_0)" fill-opacity="1.000000" fill-rule="evenodd"/>
		</g>
		<mask id="mask14_2405" mask-type="alpha" maskUnits="userSpaceOnUse" x="60.562500" y="0.000000" width="10.457031" height="9.370972">
			<path id="Vector" d="M71.01 4.68C71.01 7.27 68.67 9.37 65.79 9.37C62.9 9.37 60.56 7.27 60.56 4.68C60.56 2.09 62.9 0 65.79 0C68.67 0 71.01 2.09 71.01 4.68Z" fill="url(#paint_linear_14_2407_0)" fill-opacity="1.000000" fill-rule="evenodd"/>
		</mask>
		<g mask="url(#mask14_2405)">
			<path id="Vector" d="M71.01 4.68C71.01 7.27 68.67 9.37 65.79 9.37C62.9 9.37 60.56 7.27 60.56 4.68C60.56 2.09 62.9 0 65.79 0C68.67 0 71.01 2.09 71.01 4.68Z" fill="url(#paint_linear_14_2408_0)" fill-opacity="1.000000" fill-rule="evenodd"/>
		</g>
		<mask id="mask14_2410" mask-type="alpha" maskUnits="userSpaceOnUse" x="90.843750" y="0.000000" width="10.457031" height="9.370972">
			<path id="Vector" d="M101.3 4.68C101.3 7.27 98.96 9.37 96.07 9.37C93.18 9.37 90.84 7.27 90.84 4.68C90.84 2.09 93.18 0 96.07 0C98.96 0 101.3 2.09 101.3 4.68Z" fill="url(#paint_linear_14_2412_0)" fill-opacity="1.000000" fill-rule="evenodd"/>
		</mask>
		<g mask="url(#mask14_2410)">
			<path id="Vector" d="M101.3 4.68C101.3 7.27 98.96 9.37 96.07 9.37C93.18 9.37 90.84 7.27 90.84 4.68C90.84 2.09 93.18 0 96.07 0C98.96 0 101.3 2.09 101.3 4.68Z" fill="url(#paint_linear_14_2413_0)" fill-opacity="1.000000" fill-rule="evenodd"/>
		</g>
		<mask id="mask14_2415" mask-type="alpha" maskUnits="userSpaceOnUse" x="121.124023" y="0.000000" width="10.457031" height="9.370972">
			<path id="Vector" d="M131.58 4.68C131.58 7.27 129.24 9.37 126.35 9.37C123.46 9.37 121.12 7.27 121.12 4.68C121.12 2.09 123.46 0 126.35 0C129.24 0 131.58 2.09 131.58 4.68Z" fill="url(#paint_linear_14_2417_0)" fill-opacity="1.000000" fill-rule="evenodd"/>
		</mask>
		<g mask="url(#mask14_2415)">
			<path id="Vector" d="M131.58 4.68C131.58 7.27 129.24 9.37 126.35 9.37C123.46 9.37 121.12 7.27 121.12 4.68C121.12 2.09 123.46 0 126.35 0C129.24 0 131.58 2.09 131.58 4.68Z" fill="url(#paint_linear_14_2418_0)" fill-opacity="1.000000" fill-rule="evenodd"/>
		</g>
		<mask id="mask14_2420" mask-type="alpha" maskUnits="userSpaceOnUse" x="0.000000" y="23.524414" width="10.457031" height="9.370850">
			<path id="Vector" d="M10.45 28.2C10.45 30.79 8.11 32.89 5.22 32.89C2.34 32.89 0 30.79 0 28.2C0 25.62 2.34 23.52 5.22 23.52C8.11 23.52 10.45 25.62 10.45 28.2Z" fill="url(#paint_linear_14_2422_0)" fill-opacity="1.000000" fill-rule="evenodd"/>
		</mask>
		<g mask="url(#mask14_2420)">
			<path id="Vector" d="M10.45 28.2C10.45 30.79 8.11 32.89 5.22 32.89C2.34 32.89 0 30.79 0 28.2C0 25.62 2.34 23.52 5.22 23.52C8.11 23.52 10.45 25.62 10.45 28.2Z" fill="url(#paint_linear_14_2423_0)" fill-opacity="1.000000" fill-rule="evenodd"/>
		</g>
		<mask id="mask14_2425" mask-type="alpha" maskUnits="userSpaceOnUse" x="30.281250" y="23.524414" width="10.457031" height="9.370850">
			<path id="Vector" d="M40.73 28.2C40.73 30.79 38.39 32.89 35.5 32.89C32.62 32.89 30.28 30.79 30.28 28.2C30.28 25.62 32.62 23.52 35.5 23.52C38.39 23.52 40.73 25.62 40.73 28.2Z" fill="url(#paint_linear_14_2427_0)" fill-opacity="1.000000" fill-rule="evenodd"/>
		</mask>
		<g mask="url(#mask14_2425)">
			<path id="Vector" d="M40.73 28.2C40.73 30.79 38.39 32.89 35.5 32.89C32.62 32.89 30.28 30.79 30.28 28.2C30.28 25.62 32.62 23.52 35.5 23.52C38.39 23.52 40.73 25.62 40.73 28.2Z" fill="url(#paint_linear_14_2428_0)" fill-opacity="1.000000" fill-rule="evenodd"/>
		</g>
		<mask id="mask14_2430" mask-type="alpha" maskUnits="userSpaceOnUse" x="60.562500" y="23.524414" width="10.457031" height="9.370850">
			<path id="Vector" d="M71.01 28.2C71.01 30.79 68.67 32.89 65.79 32.89C62.9 32.89 60.56 30.79 60.56 28.2C60.56 25.62 62.9 23.52 65.79 23.52C68.67 23.52 71.01 25.62 71.01 28.2Z" fill="url(#paint_linear_14_2432_0)" fill-opacity="1.000000" fill-rule="evenodd"/>
		</mask>
		<g mask="url(#mask14_2430)">
			<path id="Vector" d="M71.01 28.2C71.01 30.79 68.67 32.89 65.79 32.89C62.9 32.89 60.56 30.79 60.56 28.2C60.56 25.62 62.9 23.52 65.79 23.52C68.67 23.52 71.01 25.62 71.01 28.2Z" fill="url(#paint_linear_14_2433_0)" fill-opacity="1.000000" fill-rule="evenodd"/>
		</g>
		<mask id="mask14_2435" mask-type="alpha" maskUnits="userSpaceOnUse" x="90.843750" y="23.524414" width="10.457031" height="9.370850">
			<path id="Vector" d="M101.3 28.2C101.3 30.79 98.96 32.89 96.07 32.89C93.18 32.89 90.84 30.79 90.84 28.2C90.84 25.62 93.18 23.52 96.07 23.52C98.96 23.52 101.3 25.62 101.3 28.2Z" fill="url(#paint_linear_14_2437_0)" fill-opacity="1.000000" fill-rule="evenodd"/>
		</mask>
		<g mask="url(#mask14_2435)">
			<path id="Vector" d="M101.3 28.2C101.3 30.79 98.96 32.89 96.07 32.89C93.18 32.89 90.84 30.79 90.84 28.2C90.84 25.62 93.18 23.52 96.07 23.52C98.96 23.52 101.3 25.62 101.3 28.2Z" fill="url(#paint_linear_14_2438_0)" fill-opacity="1.000000" fill-rule="evenodd"/>
		</g>
		<mask id="mask14_2440" mask-type="alpha" maskUnits="userSpaceOnUse" x="121.124023" y="23.524414" width="10.457031" height="9.370850">
			<path id="Vector" d="M131.58 28.2C131.58 30.79 129.24 32.89 126.35 32.89C123.46 32.89 121.12 30.79 121.12 28.2C121.12 25.62 123.46 23.52 126.35 23.52C129.24 23.52 131.58 25.62 131.58 28.2Z" fill="url(#paint_linear_14_2442_0)" fill-opacity="1.000000" fill-rule="evenodd"/>
		</mask>
		<g mask="url(#mask14_2440)">
			<path id="Vector" d="M131.58 28.2C131.58 30.79 129.24 32.89 126.35 32.89C123.46 32.89 121.12 30.79 121.12 28.2C121.12 25.62 123.46 23.52 126.35 23.52C129.24 23.52 131.58 25.62 131.58 28.2Z" fill="url(#paint_linear_14_2443_0)" fill-opacity="1.000000" fill-rule="evenodd"/>
		</g>
		<mask id="mask14_2445" mask-type="alpha" maskUnits="userSpaceOnUse" x="0.000000" y="47.000488" width="10.457031" height="9.370972">
			<path id="Vector" d="M10.45 51.68C10.45 54.27 8.11 56.37 5.22 56.37C2.34 56.37 0 54.27 0 51.68C0 49.09 2.34 47 5.22 47C8.11 47 10.45 49.09 10.45 51.68Z" fill="url(#paint_linear_14_2447_0)" fill-opacity="1.000000" fill-rule="evenodd"/>
		</mask>
		<g mask="url(#mask14_2445)">
			<path id="Vector" d="M10.45 51.68C10.45 54.27 8.11 56.37 5.22 56.37C2.34 56.37 0 54.27 0 51.68C0 49.09 2.34 47 5.22 47C8.11 47 10.45 49.09 10.45 51.68Z" fill="url(#paint_linear_14_2448_0)" fill-opacity="1.000000" fill-rule="evenodd"/>
		</g>
		<mask id="mask14_2450" mask-type="alpha" maskUnits="userSpaceOnUse" x="30.281250" y="47.000488" width="10.457031" height="9.370972">
			<path id="Vector" d="M40.73 51.68C40.73 54.27 38.39 56.37 35.5 56.37C32.62 56.37 30.28 54.27 30.28 51.68C30.28 49.09 32.62 47 35.5 47C38.39 47 40.73 49.09 40.73 51.68Z" fill="url(#paint_linear_14_2452_0)" fill-opacity="1.000000" fill-rule="evenodd"/>
		</mask>
		<g mask="url(#mask14_2450)">
			<path id="Vector" d="M40.73 51.68C40.73 54.27 38.39 56.37 35.5 56.37C32.62 56.37 30.28 54.27 30.28 51.68C30.28 49.09 32.62 47 35.5 47C38.39 47 40.73 49.09 40.73 51.68Z" fill="url(#paint_linear_14_2453_0)" fill-opacity="1.000000" fill-rule="evenodd"/>
		</g>
		<mask id="mask14_2455" mask-type="alpha" maskUnits="userSpaceOnUse" x="60.562500" y="47.000488" width="10.457031" height="9.370972">
			<path id="Vector" d="M71.01 51.68C71.01 54.27 68.67 56.37 65.79 56.37C62.9 56.37 60.56 54.27 60.56 51.68C60.56 49.09 62.9 47 65.79 47C68.67 47 71.01 49.09 71.01 51.68Z" fill="url(#paint_linear_14_2457_0)" fill-opacity="1.000000" fill-rule="evenodd"/>
		</mask>
		<g mask="url(#mask14_2455)">
			<path id="Vector" d="M71.01 51.68C71.01 54.27 68.67 56.37 65.79 56.37C62.9 56.37 60.56 54.27 60.56 51.68C60.56 49.09 62.9 47 65.79 47C68.67 47 71.01 49.09 71.01 51.68Z" fill="url(#paint_linear_14_2458_0)" fill-opacity="1.000000" fill-rule="evenodd"/>
		</g>
		<mask id="mask14_2460" mask-type="alpha" maskUnits="userSpaceOnUse" x="90.843750" y="47.000488" width="10.457031" height="9.370972">
			<path id="Vector" d="M101.3 51.68C101.3 54.27 98.96 56.37 96.07 56.37C93.18 56.37 90.84 54.27 90.84 51.68C90.84 49.09 93.18 47 96.07 47C98.96 47 101.3 49.09 101.3 51.68Z" fill="url(#paint_linear_14_2462_0)" fill-opacity="1.000000" fill-rule="evenodd"/>
		</mask>
		<g mask="url(#mask14_2460)">
			<path id="Vector" d="M101.3 51.68C101.3 54.27 98.96 56.37 96.07 56.37C93.18 56.37 90.84 54.27 90.84 51.68C90.84 49.09 93.18 47 96.07 47C98.96 47 101.3 49.09 101.3 51.68Z" fill="url(#paint_linear_14_2463_0)" fill-opacity="1.000000" fill-rule="evenodd"/>
		</g>
		<mask id="mask14_2465" mask-type="alpha" maskUnits="userSpaceOnUse" x="121.124023" y="47.000488" width="10.457031" height="9.370972">
			<path id="Vector" d="M131.58 51.68C131.58 54.27 129.24 56.37 126.35 56.37C123.46 56.37 121.12 54.27 121.12 51.68C121.12 49.09 123.46 47 126.35 47C129.24 47 131.58 49.09 131.58 51.68Z" fill="url(#paint_linear_14_2467_0)" fill-opacity="1.000000" fill-rule="evenodd"/>
		</mask>
		<g mask="url(#mask14_2465)">
			<path id="Vector" d="M131.58 51.68C131.58 54.27 129.24 56.37 126.35 56.37C123.46 56.37 121.12 54.27 121.12 51.68C121.12 49.09 123.46 47 126.35 47C129.24 47 131.58 49.09 131.58 51.68Z" fill="url(#paint_linear_14_2468_0)" fill-opacity="1.000000" fill-rule="evenodd"/>
		</g>
		<mask id="mask14_2470" mask-type="alpha" maskUnits="userSpaceOnUse" x="0.000000" y="70.525391" width="10.457031" height="9.370972">
			<path id="Vector" d="M10.45 75.21C10.45 77.79 8.11 79.89 5.22 79.89C2.34 79.89 0 77.79 0 75.21C0 72.62 2.34 70.52 5.22 70.52C8.11 70.52 10.45 72.62 10.45 75.21Z" fill="url(#paint_linear_14_2472_0)" fill-opacity="1.000000" fill-rule="evenodd"/>
		</mask>
		<g mask="url(#mask14_2470)">
			<path id="Vector" d="M10.45 75.21C10.45 77.79 8.11 79.89 5.22 79.89C2.34 79.89 0 77.79 0 75.21C0 72.62 2.34 70.52 5.22 70.52C8.11 70.52 10.45 72.62 10.45 75.21Z" fill="url(#paint_linear_14_2473_0)" fill-opacity="1.000000" fill-rule="evenodd"/>
		</g>
		<mask id="mask14_2475" mask-type="alpha" maskUnits="userSpaceOnUse" x="30.281250" y="70.525391" width="10.457031" height="9.370972">
			<path id="Vector" d="M40.73 75.21C40.73 77.79 38.39 79.89 35.5 79.89C32.62 79.89 30.28 77.79 30.28 75.21C30.28 72.62 32.62 70.52 35.5 70.52C38.39 70.52 40.73 72.62 40.73 75.21Z" fill="url(#paint_linear_14_2477_0)" fill-opacity="1.000000" fill-rule="evenodd"/>
		</mask>
		<g mask="url(#mask14_2475)">
			<path id="Vector" d="M40.73 75.21C40.73 77.79 38.39 79.89 35.5 79.89C32.62 79.89 30.28 77.79 30.28 75.21C30.28 72.62 32.62 70.52 35.5 70.52C38.39 70.52 40.73 72.62 40.73 75.21Z" fill="url(#paint_linear_14_2478_0)" fill-opacity="1.000000" fill-rule="evenodd"/>
		</g>
		<mask id="mask14_2480" mask-type="alpha" maskUnits="userSpaceOnUse" x="60.562500" y="70.525391" width="10.457031" height="9.370972">
			<path id="Vector" d="M71.01 75.21C71.01 77.79 68.67 79.89 65.79 79.89C62.9 79.89 60.56 77.79 60.56 75.21C60.56 72.62 62.9 70.52 65.79 70.52C68.67 70.52 71.01 72.62 71.01 75.21Z" fill="url(#paint_linear_14_2482_0)" fill-opacity="1.000000" fill-rule="evenodd"/>
		</mask>
		<g mask="url(#mask14_2480)">
			<path id="Vector" d="M71.01 75.21C71.01 77.79 68.67 79.89 65.79 79.89C62.9 79.89 60.56 77.79 60.56 75.21C60.56 72.62 62.9 70.52 65.79 70.52C68.67 70.52 71.01 72.62 71.01 75.21Z" fill="url(#paint_linear_14_2483_0)" fill-opacity="1.000000" fill-rule="evenodd"/>
		</g>
		<mask id="mask14_2485" mask-type="alpha" maskUnits="userSpaceOnUse" x="90.843750" y="70.525391" width="10.457031" height="9.370972">
			<path id="Vector" d="M101.3 75.21C101.3 77.79 98.96 79.89 96.07 79.89C93.18 79.89 90.84 77.79 90.84 75.21C90.84 72.62 93.18 70.52 96.07 70.52C98.96 70.52 101.3 72.62 101.3 75.21Z" fill="url(#paint_linear_14_2487_0)" fill-opacity="1.000000" fill-rule="evenodd"/>
		</mask>
		<g mask="url(#mask14_2485)">
			<path id="Vector" d="M101.3 75.21C101.3 77.79 98.96 79.89 96.07 79.89C93.18 79.89 90.84 77.79 90.84 75.21C90.84 72.62 93.18 70.52 96.07 70.52C98.96 70.52 101.3 72.62 101.3 75.21Z" fill="url(#paint_linear_14_2488_0)" fill-opacity="1.000000" fill-rule="evenodd"/>
		</g>
		<mask id="mask14_2490" mask-type="alpha" maskUnits="userSpaceOnUse" x="121.124023" y="70.525391" width="10.457031" height="9.370972">
			<path id="Vector" d="M131.58 75.21C131.58 77.79 129.24 79.89 126.35 79.89C123.46 79.89 121.12 77.79 121.12 75.21C121.12 72.62 123.46 70.52 126.35 70.52C129.24 70.52 131.58 72.62 131.58 75.21Z" fill="url(#paint_linear_14_2492_0)" fill-opacity="1.000000" fill-rule="evenodd"/>
		</mask>
		<g mask="url(#mask14_2490)">
			<path id="Vector" d="M131.58 75.21C131.58 77.79 129.24 79.89 126.35 79.89C123.46 79.89 121.12 77.79 121.12 75.21C121.12 72.62 123.46 70.52 126.35 70.52C129.24 70.52 131.58 72.62 131.58 75.21Z" fill="url(#paint_linear_14_2493_0)" fill-opacity="1.000000" fill-rule="evenodd"/>
		</g>
		<mask id="mask14_2495" mask-type="alpha" maskUnits="userSpaceOnUse" x="0.000000" y="94.001465" width="10.457031" height="9.370972">
			<path id="Vector" d="M10.45 98.68C10.45 101.27 8.11 103.37 5.22 103.37C2.34 103.37 0 101.27 0 98.68C0 96.09 2.34 94 5.22 94C8.11 94 10.45 96.09 10.45 98.68Z" fill="url(#paint_linear_14_2497_0)" fill-opacity="1.000000" fill-rule="evenodd"/>
		</mask>
		<g mask="url(#mask14_2495)">
			<path id="Vector" d="M10.45 98.68C10.45 101.27 8.11 103.37 5.22 103.37C2.34 103.37 0 101.27 0 98.68C0 96.09 2.34 94 5.22 94C8.11 94 10.45 96.09 10.45 98.68Z" fill="url(#paint_linear_14_2498_0)" fill-opacity="1.000000" fill-rule="evenodd"/>
		</g>
		<mask id="mask14_2500" mask-type="alpha" maskUnits="userSpaceOnUse" x="30.281250" y="94.001465" width="10.457031" height="9.370972">
			<path id="Vector" d="M40.73 98.68C40.73 101.27 38.39 103.37 35.5 103.37C32.62 103.37 30.28 101.27 30.28 98.68C30.28 96.09 32.62 94 35.5 94C38.39 94 40.73 96.09 40.73 98.68Z" fill="url(#paint_linear_14_2502_0)" fill-opacity="1.000000" fill-rule="evenodd"/>
		</mask>
		<g mask="url(#mask14_2500)">
			<path id="Vector" d="M40.73 98.68C40.73 101.27 38.39 103.37 35.5 103.37C32.62 103.37 30.28 101.27 30.28 98.68C30.28 96.09 32.62 94 35.5 94C38.39 94 40.73 96.09 40.73 98.68Z" fill="url(#paint_linear_14_2503_0)" fill-opacity="1.000000" fill-rule="evenodd"/>
		</g>
		<mask id="mask14_2505" mask-type="alpha" maskUnits="userSpaceOnUse" x="60.562500" y="94.001465" width="10.457031" height="9.370972">
			<path id="Vector" d="M71.01 98.68C71.01 101.27 68.67 103.37 65.79 103.37C62.9 103.37 60.56 101.27 60.56 98.68C60.56 96.09 62.9 94 65.79 94C68.67 94 71.01 96.09 71.01 98.68Z" fill="url(#paint_linear_14_2507_0)" fill-opacity="1.000000" fill-rule="evenodd"/>
		</mask>
		<g mask="url(#mask14_2505)">
			<path id="Vector" d="M71.01 98.68C71.01 101.27 68.67 103.37 65.79 103.37C62.9 103.37 60.56 101.27 60.56 98.68C60.56 96.09 62.9 94 65.79 94C68.67 94 71.01 96.09 71.01 98.68Z" fill="url(#paint_linear_14_2508_0)" fill-opacity="1.000000" fill-rule="evenodd"/>
		</g>
		<mask id="mask14_2510" mask-type="alpha" maskUnits="userSpaceOnUse" x="90.843750" y="94.001465" width="10.457031" height="9.370972">
			<path id="Vector" d="M101.3 98.68C101.3 101.27 98.96 103.37 96.07 103.37C93.18 103.37 90.84 101.27 90.84 98.68C90.84 96.09 93.18 94 96.07 94C98.96 94 101.3 96.09 101.3 98.68Z" fill="url(#paint_linear_14_2512_0)" fill-opacity="1.000000" fill-rule="evenodd"/>
		</mask>
		<g mask="url(#mask14_2510)">
			<path id="Vector" d="M101.3 98.68C101.3 101.27 98.96 103.37 96.07 103.37C93.18 103.37 90.84 101.27 90.84 98.68C90.84 96.09 93.18 94 96.07 94C98.96 94 101.3 96.09 101.3 98.68Z" fill="url(#paint_linear_14_2513_0)" fill-opacity="1.000000" fill-rule="evenodd"/>
		</g>
		<mask id="mask14_2515" mask-type="alpha" maskUnits="userSpaceOnUse" x="121.124023" y="94.001465" width="10.457031" height="9.370972">
			<path id="Vector" d="M131.58 98.68C131.58 101.27 129.24 103.37 126.35 103.37C123.46 103.37 121.12 101.27 121.12 98.68C121.12 96.09 123.46 94 126.35 94C129.24 94 131.58 96.09 131.58 98.68Z" fill="url(#paint_linear_14_2517_0)" fill-opacity="1.000000" fill-rule="evenodd"/>
		</mask>
		<g mask="url(#mask14_2515)">
			<path id="Vector" d="M131.58 98.68C131.58 101.27 129.24 103.37 126.35 103.37C123.46 103.37 121.12 101.27 121.12 98.68C121.12 96.09 123.46 94 126.35 94C129.24 94 131.58 96.09 131.58 98.68Z" fill="url(#paint_linear_14_2518_0)" fill-opacity="1.000000" fill-rule="evenodd"/>
		</g>
	</g>
</svg>
