<svg width="48.000000" height="48.000000" viewBox="0 0 48 48" fill="none" xmlns="http://www.w3.org/2000/svg" xmlns:xlink="http://www.w3.org/1999/xlink">
	<desc>
			Created with Pixso.
	</desc>
	<defs>
		<clipPath id="clip25_3568">
			<rect id="icon / jam-icons / outline &amp; logos / files" rx="-0.500000" width="23.000000" height="23.000000" transform="translate(12.500000 12.500000)" fill="white" fill-opacity="0"/>
		</clipPath>
	</defs>
	<rect id="Icon Container" rx="-0.500000" width="47.000000" height="47.000000" transform="translate(0.500000 0.500000)" fill="#DDE1E6" fill-opacity="1.000000"/>
	<g clip-path="url(#clip25_3568)">
		<path id="Vector" d="M21 29L17 29C16.46 29 15.96 28.78 15.58 28.41C15.21 28.03 15 27.53 15 27L15 16C15 15.46 15.21 14.96 15.58 14.58C15.96 14.21 16.46 14 17 14L25 14C25.53 14 26.03 14.21 26.41 14.58C26.78 14.96 27 15.46 27 16L27 19L30 19L33 22L33 32C33 32.53 32.78 33.03 32.41 33.41C32.03 33.78 31.53 34 31 34L23 34C22.46 34 21.96 33.78 21.58 33.41C21.21 33.03 21 32.53 21 32L21 29ZM21 27L21 21C21 20.46 21.21 19.96 21.58 19.58C21.96 19.21 22.46 19 23 19L25 19L25 16L17 16L17 27L21 27ZM29.17 21L23 21L23 32L31 32L31 22.82L29.17 21Z" fill="#21272A" fill-opacity="1.000000" fill-rule="nonzero"/>
	</g>
</svg>
