<svg width="14.000000" height="14.000000" viewBox="0 0 14 14" fill="none" xmlns="http://www.w3.org/2000/svg" xmlns:xlink="http://www.w3.org/1999/xlink">
	<desc>
			Created with Pixso.
	</desc>
	<defs/>
	<path id="Vector" d="M8 6L8 1C8 0.73 7.89 0.48 7.7 0.29C7.51 0.1 7.26 0 7 0C6.73 0 6.48 0.1 6.29 0.29C6.1 0.48 6 0.73 6 1L6 6L1 6C0.73 6 0.48 6.1 0.29 6.29C0.1 6.48 0 6.73 0 7C0 7.26 0.1 7.51 0.29 7.7C0.48 7.89 0.73 8 1 8L6 8L6 13C6 13.26 6.1 13.51 6.29 13.7C6.48 13.89 6.73 14 7 14C7.26 14 7.51 13.89 7.7 13.7C7.89 13.51 8 13.26 8 13L8 8L13 8C13.26 8 13.51 7.89 13.7 7.7C13.89 7.51 14 7.26 14 7C14 6.73 13.89 6.48 13.7 6.29C13.51 6.1 13.26 6 13 6L8 6Z" fill="#21272A" fill-opacity="1.000000" fill-rule="nonzero"/>
</svg>
