<svg width="24" height="24" viewBox="0 0 25 24" fill="none" xmlns="http://www.w3.org/2000/svg">
<path d="M10.6196 16.5C11.4076 16.5 12.1878 16.3448 12.9157 16.0433C13.6437 15.7418 14.3051 15.2998 14.8623 14.7427C15.4194 14.1855 15.8614 13.5241 16.1629 12.7961C16.4644 12.0682 16.6196 11.2879 16.6196 10.5C16.6196 9.71208 16.4644 8.93187 16.1629 8.20391C15.8614 7.47596 15.4194 6.81453 14.8623 6.25737C14.3051 5.70022 13.6437 5.25827 12.9157 4.95674C12.1878 4.65521 11.4076 4.50002 10.6196 4.50002C9.02835 4.50002 7.50222 5.13216 6.377 6.25737C5.25178 7.38259 4.61964 8.90872 4.61964 10.5C4.61964 12.0913 5.25178 13.6174 6.377 14.7427C7.50222 15.8679 9.02835 16.5 10.6196 16.5ZM16.9396 15.406L20.5196 18.986C20.6151 19.0783 20.6912 19.1887 20.7435 19.3108C20.7958 19.4328 20.8233 19.564 20.8244 19.6968C20.8254 19.8296 20.8 19.9613 20.7497 20.0841C20.6993 20.207 20.625 20.3186 20.531 20.4124C20.4371 20.5062 20.3254 20.5804 20.2024 20.6306C20.0795 20.6808 19.9478 20.706 19.815 20.7048C19.6822 20.7035 19.551 20.6758 19.4291 20.6233C19.3071 20.5708 19.1968 20.4946 19.1046 20.399L15.5246 16.819C13.9171 18.0669 11.8944 18.6552 9.8684 18.4642C7.84236 18.2732 5.96525 17.3173 4.61919 15.7911C3.27314 14.2648 2.55933 12.283 2.62307 10.2489C2.68681 8.21492 3.52331 6.28164 4.96229 4.84266C6.40127 3.40368 8.33455 2.56718 10.3686 2.50344C12.4026 2.4397 14.3845 3.15351 15.9107 4.49957C17.437 5.84562 18.3929 7.72273 18.5838 9.74877C18.7748 11.7748 18.1865 13.7975 16.9386 15.405L16.9396 15.406Z" fill="#697077"/>
</svg>
